<?xml version="1.0" encoding="utf-8"?>
<!-- Generator: Adobe Illustrator 16.0.0, SVG Export Plug-In . SVG Version: 6.00 Build 0)  -->
<!DOCTYPE svg PUBLIC "-//W3C//DTD SVG 1.1//EN" "http://www.w3.org/Graphics/SVG/1.1/DTD/svg11.dtd">
<svg version="1.1" id="Layer_1" xmlns="http://www.w3.org/2000/svg" xmlns:xlink="http://www.w3.org/1999/xlink" x="0px" y="0px"
	 width="552px" height="372px" viewBox="0 0 552 372" enable-background="new 0 0 552 372" xml:space="preserve">
<g>
	<path fill="#F4C89B" d="M365.477,57.176c53.86,51.625,55.677,137.135,4.046,191.003c-51.624,53.86-137.138,55.666-190.998,4.042
		c-53.862-51.625-55.676-137.135-4.051-190.995C226.103,7.358,311.613,5.546,365.477,57.176"/>
	<g>
		<g>
			<g>
				<path fill="#F4C89B" d="M353.793,69.365c0,0,0.684,0.69,1.878,1.9c0.6,0.603,1.328,1.335,2.163,2.175
					c0.816,0.855,1.683,1.871,2.662,2.948c3.875,4.34,8.654,10.479,12.646,17.123c4.027,6.62,7.31,13.669,9.338,19.115
					c0.537,1.351,0.923,2.628,1.324,3.738c0.372,1.121,0.762,2.076,0.974,2.898c0.475,1.629,0.746,2.56,0.746,2.56l15.708-4.532
					c2.006-2.368,3.724-5.177,4.845-8.279c0.583-1.558,1.063-3.204,1.438-4.925c0.32-1.7,0.515-3.469,0.604-5.3
					c0.299-7.276-1.579-15.448-6.098-22.775c-4.479-7.346-10.746-12.856-17.345-15.956c-1.631-0.796-3.36-1.379-5.02-1.879
					c-1.683-0.479-3.306-0.869-4.98-1.05c-3.347-0.368-6.563-0.219-9.571,0.435L353.793,69.365z"/>
				<path fill="#F4C89B" d="M385.441,121.54c0,0,0.273,0.93,0.753,2.557c0.198,0.825,0.438,1.826,0.714,2.976
					c0.263,1.151,0.633,2.435,0.869,3.872c1.225,5.686,2.242,13.412,2.397,21.177c0.197,7.766-0.505,15.527-1.474,21.262
					c-0.177,1.445-0.477,2.746-0.697,3.906c-0.227,1.16-0.424,2.171-0.586,3.004c-0.406,1.646-0.639,2.588-0.639,2.588l15.882,3.882
					c1.468-0.527,2.915-1.188,4.331-1.979c1.369-0.802,2.7-1.735,3.989-2.796c1.271-1.063,2.571-2.239,3.684-3.557
					c1.124-1.315,2.19-2.749,3.188-4.29c3.875-6.162,6.257-14.164,6.082-22.756c-0.192-8.593-2.93-16.483-7.071-22.471
					c-1.061-1.496-2.187-2.883-3.365-4.148c-1.183-1.265-2.521-2.386-3.839-3.392c-1.336-1.002-2.694-1.881-4.111-2.618
					c-1.448-0.729-2.921-1.325-4.409-1.788L385.441,121.54z"/>
			</g>
			<g>
				<path fill="#F4C89B" d="M386.779,182.881c0,0-0.231,0.94-0.637,2.588c-0.192,0.826-0.529,1.801-0.856,2.936
					c-0.357,1.125-0.677,2.422-1.172,3.788c-1.789,5.53-4.79,12.704-8.539,19.486c-3.716,6.803-8.239,13.133-11.935,17.627
					c-0.936,1.115-1.748,2.174-2.541,3.054c-0.799,0.874-1.495,1.637-2.068,2.265c-0.571,0.629-1.021,1.124-1.326,1.461
					c-0.303,0.341-0.475,0.512-0.475,0.513l11.789,11.327c3.043,0.539,6.253,0.546,9.581,0.041c1.678-0.239,3.272-0.706,4.937-1.252
					c1.639-0.566,3.332-1.229,4.939-2.081c6.455-3.376,12.501-9.131,16.674-16.656c4.216-7.506,5.742-15.754,5.154-23.008
					c-0.164-1.825-0.439-3.588-0.822-5.271c-0.44-1.702-0.994-3.329-1.641-4.861c-1.253-3.056-3.07-5.787-5.181-8.073
					L386.779,182.881z"/>
				<path fill="#F4C89B" d="M357.435,236.384c0,0-0.164,0.18-0.491,0.496c-0.324,0.32-0.799,0.79-1.403,1.388
					c-0.604,0.6-1.335,1.327-2.175,2.162c-0.845,0.829-1.869,1.686-2.944,2.668c-4.332,3.883-10.465,8.67-17.104,12.671
					c-6.616,4.032-13.657,7.334-19.106,9.356c-1.345,0.552-2.627,0.926-3.735,1.331c-1.119,0.375-2.079,0.753-2.896,0.979
					c-1.629,0.475-2.559,0.746-2.559,0.746l4.551,15.703c2.373,2.012,5.18,3.712,8.285,4.834c1.559,0.581,3.207,1.065,4.927,1.434
					c1.698,0.311,3.471,0.512,5.302,0.599c7.272,0.28,15.448-1.594,22.769-6.124c7.342-4.488,12.836-10.772,15.936-17.365
					c0.784-1.643,1.373-3.362,1.87-5.024c0.475-1.685,0.873-3.298,1.042-4.984c0.362-3.348,0.22-6.554-0.448-9.57L357.435,236.384z"
					/>
			</g>
			<g>
				<path fill="#F4C89B" d="M305.02,268.182c0,0-0.931,0.271-2.559,0.747c-0.825,0.197-1.827,0.438-2.977,0.713
					c-1.149,0.27-2.437,0.624-3.873,0.862c-5.688,1.21-13.414,2.24-21.18,2.372c-7.764,0.173-15.527-0.517-21.26-1.499
					c-1.446-0.176-2.744-0.491-3.905-0.705c-1.16-0.227-2.17-0.424-3.003-0.587c-1.646-0.41-2.586-0.645-2.586-0.645l-3.902,15.877
					c0.525,1.468,1.184,2.914,1.974,4.33c0.796,1.385,1.731,2.704,2.789,3.996c1.061,1.275,2.238,2.563,3.551,3.692
					c1.314,1.124,2.747,2.189,4.287,3.187c6.157,3.885,14.156,6.285,22.749,6.114c8.592-0.189,16.487-2.908,22.479-7.04
					c1.498-1.062,2.885-2.188,4.152-3.366c1.269-1.167,2.389-2.516,3.396-3.831c1.005-1.333,1.882-2.702,2.625-4.104
					c0.729-1.449,1.328-2.923,1.793-4.411L305.02,268.182z"/>
				<path fill="#F4C89B" d="M243.963,269.512c0,0-0.941-0.231-2.588-0.638c-0.831-0.177-1.802-0.525-2.938-0.849
					c-1.126-0.354-2.419-0.686-3.791-1.165c-5.528-1.796-12.71-4.776-19.495-8.52c-6.807-3.708-13.143-8.223-17.643-11.911
					c-1.118-0.933-2.169-1.755-3.059-2.534c-0.875-0.799-1.637-1.495-2.264-2.068c-1.259-1.143-1.979-1.796-1.979-1.796
					l-11.313,11.803c-0.525,3.033-0.538,6.254-0.029,9.582c0.252,1.666,0.711,3.271,1.261,4.932c0.57,1.637,1.225,3.34,2.089,4.935
					c3.376,6.462,9.147,12.488,16.676,16.653c7.513,4.204,15.756,5.734,23.014,5.127c1.825-0.167,3.584-0.436,5.27-0.828
					c1.703-0.447,3.327-0.997,4.859-1.646c3.053-1.252,5.786-3.087,8.067-5.19L243.963,269.512z"/>
			</g>
			<g>
				<path fill="#F4C89B" d="M190.207,240.031c0,0-0.683-0.691-1.878-1.901c-0.6-0.603-1.328-1.334-2.163-2.174
					c-0.817-0.856-1.683-1.872-2.662-2.949c-3.875-4.339-8.655-10.478-12.647-17.122c-4.027-6.62-7.31-13.669-9.338-19.116
					c-0.537-1.35-0.922-2.628-1.324-3.737c-0.372-1.121-0.761-2.076-0.973-2.899c-0.475-1.628-0.746-2.559-0.746-2.559
					l-15.709,4.532c-2.005,2.368-3.723,5.177-4.844,8.279c-0.583,1.558-1.064,3.204-1.438,4.925c-0.321,1.7-0.515,3.469-0.604,5.3
					c-0.299,7.276,1.579,15.448,6.097,22.775c4.48,7.346,10.746,12.856,17.346,15.956c1.63,0.796,3.36,1.379,5.019,1.878
					c1.683,0.479,3.306,0.87,4.98,1.051c3.347,0.368,6.563,0.218,9.571-0.436L190.207,240.031z"/>
				<path fill="#F4C89B" d="M158.559,187.856c0,0-0.274-0.93-0.754-2.557c-0.197-0.825-0.438-1.827-0.713-2.976
					c-0.264-1.151-0.634-2.435-0.87-3.872c-1.224-5.687-2.242-13.412-2.397-21.177c-0.197-7.766,0.505-15.527,1.474-21.262
					c0.177-1.445,0.476-2.746,0.698-3.906c0.226-1.16,0.423-2.171,0.586-3.004c0.406-1.646,0.638-2.587,0.638-2.587l-15.882-3.883
					c-1.468,0.527-2.915,1.188-4.331,1.979c-1.369,0.802-2.7,1.735-3.989,2.796c-1.271,1.063-2.572,2.239-3.684,3.557
					c-1.124,1.315-2.19,2.749-3.187,4.29c-3.875,6.162-6.257,14.164-6.083,22.756c0.193,8.593,2.93,16.484,7.071,22.471
					c1.062,1.496,2.187,2.883,3.366,4.148c1.183,1.265,2.52,2.386,3.838,3.392c1.336,1.003,2.694,1.881,4.111,2.618
					c1.449,0.729,2.921,1.325,4.41,1.788L158.559,187.856z"/>
			</g>
			<g>
				<path fill="#F4C89B" d="M157.221,126.517c0,0,0.231-0.941,0.636-2.589c0.193-0.826,0.53-1.801,0.857-2.935
					c0.358-1.125,0.677-2.423,1.172-3.789c1.789-5.53,4.791-12.704,8.539-19.485c3.716-6.803,8.24-13.133,11.936-17.626
					c0.936-1.115,1.748-2.175,2.541-3.054c0.798-0.874,1.495-1.637,2.068-2.265c0.572-0.629,1.021-1.124,1.327-1.461
					c0.303-0.341,0.476-0.512,0.475-0.512l-11.789-11.328c-3.043-0.54-6.252-0.547-9.582-0.042
					c-1.678,0.239-3.272,0.706-4.936,1.251c-1.639,0.566-3.332,1.229-4.94,2.081c-6.455,3.376-12.501,9.131-16.674,16.655
					c-4.217,7.506-5.743,15.755-5.155,23.009c0.164,1.825,0.439,3.588,0.822,5.271c0.44,1.702,0.995,3.329,1.641,4.861
					c1.253,3.056,3.07,5.787,5.181,8.073L157.221,126.517z"/>
				<path fill="#F4C89B" d="M186.566,73.015c0,0,0.165-0.179,0.492-0.496c0.324-0.32,0.799-0.79,1.404-1.388
					c0.603-0.6,1.335-1.327,2.175-2.162c0.845-0.829,1.869-1.686,2.944-2.668c4.333-3.883,10.466-8.671,17.105-12.672
					c6.617-4.032,13.658-7.334,19.107-9.356c1.344-0.552,2.627-0.926,3.735-1.331c1.12-0.375,2.079-0.753,2.896-0.98
					c1.628-0.475,2.559-0.746,2.559-0.746l-4.551-15.703c-2.374-2.011-5.18-3.711-8.287-4.833c-1.559-0.581-3.207-1.065-4.927-1.434
					c-1.698-0.311-3.47-0.512-5.301-0.598c-7.273-0.281-15.448,1.594-22.769,6.124c-7.342,4.488-12.835,10.772-15.935,17.365
					c-0.784,1.642-1.374,3.362-1.87,5.023c-0.475,1.685-0.873,3.298-1.042,4.984c-0.363,3.348-0.22,6.554,0.448,9.571
					L186.566,73.015z"/>
			</g>
			<g>
				<path fill="#F4C89B" d="M238.983,41.215c0,0,0.93-0.271,2.558-0.747c0.825-0.197,1.827-0.438,2.976-0.713
					c1.15-0.271,2.437-0.624,3.873-0.862c5.688-1.21,13.414-2.241,21.18-2.373c7.764-0.174,15.526,0.516,21.26,1.498
					c1.445,0.176,2.743,0.491,3.904,0.705c1.16,0.227,2.171,0.425,3.004,0.587c1.646,0.41,2.586,0.645,2.586,0.645l3.902-15.877
					c-0.525-1.468-1.184-2.914-1.974-4.33c-0.796-1.385-1.731-2.704-2.789-3.996c-1.061-1.275-2.238-2.563-3.552-3.692
					c-1.314-1.124-2.746-2.19-4.286-3.187c-6.157-3.884-14.157-6.284-22.749-6.113c-8.592,0.189-16.487,2.908-22.48,7.041
					c-1.497,1.062-2.885,2.188-4.151,3.366c-1.27,1.167-2.39,2.516-3.398,3.831c-1.004,1.333-1.881,2.703-2.624,4.104
					c-0.73,1.448-1.329,2.922-1.792,4.41L238.983,41.215z"/>
				<path fill="#F4C89B" d="M300.038,39.883c0,0,0.941,0.232,2.588,0.638c0.831,0.177,1.802,0.525,2.938,0.85
					c1.126,0.354,2.419,0.685,3.791,1.164c5.528,1.796,12.71,4.777,19.494,8.521c6.808,3.707,13.143,8.223,17.643,11.911
					c1.118,0.933,2.169,1.755,3.06,2.534c0.874,0.799,1.636,1.495,2.264,2.069c1.259,1.143,1.979,1.795,1.979,1.795l11.313-11.803
					c0.525-3.033,0.538-6.253,0.029-9.581c-0.252-1.666-0.711-3.271-1.261-4.932c-0.569-1.637-1.225-3.34-2.089-4.935
					c-3.376-6.462-9.147-12.489-16.676-16.654c-7.512-4.204-15.756-5.734-23.014-5.127c-1.825,0.167-3.584,0.436-5.271,0.828
					c-1.703,0.447-3.326,0.997-4.858,1.645c-3.053,1.252-5.786,3.087-8.067,5.19L300.038,39.883z"/>
			</g>
		</g>
	</g>
</g>
<path fill="#D25253" d="M221.88,90.063c29.096-14.544,47.877,14.564,52.813,23.52c4.543-9.163,22.069-39.03,51.751-25.736
	c76.718,34.343-20.897,122.648-47.968,145.33l0.053,1.992c-0.412-0.295-0.837-0.628-1.279-0.964
	c-0.445,0.36-0.855,0.699-1.236,1.012l-0.052-1.986C247.958,211.711,146.692,127.62,221.88,90.063z"/>
<circle fill="#C9976B" cx="270.032" cy="46.848" r="10.311"/>
<circle fill="#C9976B" cx="273.955" cy="269.829" r="10.311"/>
<circle fill="#C9976B" cx="325.463" cy="57.16" r="10.311"/>
<circle fill="#C9976B" cx="372.463" cy="94.802" r="10.311"/>
<circle fill="#C9976B" cx="388.085" cy="154.698" r="10.312"/>
<circle fill="#C9976B" cx="372.463" cy="210.821" r="10.311"/>
<circle fill="#C9976B" cx="333.463" cy="252.528" r="10.311"/>
<circle fill="#C9976B" cx="220.085" cy="55.16" r="10.311"/>
<circle fill="#C9976B" cx="175.085" cy="93.802" r="10.311"/>
<circle fill="#C9976B" cx="159.464" cy="153.698" r="10.312"/>
<circle fill="#C9976B" cx="175.085" cy="209.821" r="10.311"/>
<circle fill="#C9976B" cx="214.085" cy="251.528" r="10.311"/>
</svg>
