<?xml version="1.0" encoding="utf-8"?>
<!-- Generator: Adobe Illustrator 16.0.0, SVG Export Plug-In . SVG Version: 6.00 Build 0)  -->
<!DOCTYPE svg PUBLIC "-//W3C//DTD SVG 1.1//EN" "http://www.w3.org/Graphics/SVG/1.1/DTD/svg11.dtd">
<svg version="1.1" xmlns="http://www.w3.org/2000/svg" xmlns:xlink="http://www.w3.org/1999/xlink" x="0px" y="0px"
	 width="281.248px" height="600.506px" viewBox="0 0 281.248 600.506" enable-background="new 0 0 281.248 600.506"
	 xml:space="preserve">
<g id="Layer_2">
	<rect opacity="0.5" fill="#F69799" width="35.25" height="600.506"/>
	<rect x="34.561" opacity="0.5" fill="#CC3333" width="35.25" height="600.506"/>
	<rect x="69.811" opacity="0.5" fill="#F69799" width="35.25" height="600.506"/>
	<rect x="104.733" opacity="0.5" fill="#CC3333" width="35.25" height="600.506"/>
	<rect x="139.999" opacity="0.5" fill="#F69799" width="35.25" height="600.506"/>
	<rect x="175.25" opacity="0.5" fill="#CC3333" width="35.25" height="600.506"/>
	<rect x="210.732" opacity="0.5" fill="#F69799" width="35.25" height="600.506"/>
	<rect x="245.998" opacity="0.5" fill="#CC3333" width="35.25" height="600.506"/>
</g>
<g id="Layer_1">
	<path fill="#FDCC9A" stroke="#CB9966" stroke-width="2" stroke-miterlimit="10" d="M97.001,250.091c0-3.072-1.723-5.744-4.249-7.1
		c1.51-2.441,1.663-5.617,0.129-8.275c-1.538-2.662-4.362-4.113-7.23-4.025c0.086-2.869-1.367-5.693-4.025-7.229
		c-2.662-1.537-5.832-1.381-8.275,0.129c-1.357-2.529-4.027-4.248-7.1-4.248s-5.742,1.719-7.102,4.248
		c-2.44-1.51-5.612-1.666-8.272-0.129c-2.661,1.535-4.113,4.359-4.026,7.229c-2.871-0.086-5.693,1.367-7.229,4.025
		c-1.536,2.66-1.381,5.834,0.129,8.275c-2.528,1.355-4.249,4.027-4.249,7.1s1.721,5.74,4.249,7.1
		c-1.51,2.441-1.665,5.615-0.129,8.273c1.536,2.662,4.36,4.111,7.23,4.025c-0.088,2.869,1.364,5.695,4.025,7.232
		c2.66,1.535,5.832,1.381,8.274-0.131c1.358,2.527,4.027,4.248,7.1,4.248s5.742-1.721,7.1-4.25c2.443,1.514,5.613,1.668,8.275,0.133
		c2.66-1.537,4.111-4.363,4.025-7.232c2.868,0.086,5.692-1.363,7.23-4.023c1.536-2.66,1.381-5.834-0.131-8.275
		C95.278,255.831,97.001,253.163,97.001,250.091z"/>
	<path fill="#EE3968" stroke="#CC3333" stroke-width="2" stroke-miterlimit="10" d="M83.023,244.466
		c4.02,8.332-16.773,19.875-16.773,19.875S45.307,252.7,49.522,244.466c6.95-13.578,16.75-2.076,16.75-2.076
		S76.473,230.888,83.023,244.466z"/>
	<circle fill="#CB9966" stroke="#FDCC9A" stroke-miterlimit="10" cx="66.25" cy="228.028" r="2.75"/>
	<circle fill="#CB9966" stroke="#FDCC9A" stroke-miterlimit="10" cx="77.269" cy="230.778" r="2.75"/>
	<circle fill="#CB9966" stroke="#FDCC9A" stroke-miterlimit="10" cx="86.936" cy="237.841" r="2.75"/>
	<circle fill="#CB9966" stroke="#FDCC9A" stroke-miterlimit="10" cx="89.686" cy="250.091" r="2.75"/>
	<circle fill="#CB9966" stroke="#FDCC9A" stroke-miterlimit="10" cx="66.25" cy="272.363" r="2.75"/>
	<circle fill="#CB9966" stroke="#FDCC9A" stroke-miterlimit="10" cx="78.02" cy="269.611" r="2.75"/>
	<circle fill="#CB9966" stroke="#FDCC9A" stroke-miterlimit="10" cx="86.936" cy="261.59" r="2.75"/>
	<circle fill="#CB9966" stroke="#FDCC9A" stroke-miterlimit="10" cx="55.17" cy="230.673" r="2.75"/>
	<circle fill="#CB9966" stroke="#FDCC9A" stroke-miterlimit="10" cx="45.504" cy="237.735" r="2.75"/>
	<circle fill="#CB9966" stroke="#FDCC9A" stroke-miterlimit="10" cx="42.754" cy="249.985" r="2.75"/>
	<circle fill="#CB9966" stroke="#FDCC9A" stroke-miterlimit="10" cx="54.42" cy="269.506" r="2.75"/>
	<circle fill="#CB9966" stroke="#FDCC9A" stroke-miterlimit="10" cx="45.504" cy="261.484" r="2.75"/>
	<path fill="#FDCC9A" stroke="#CB9966" stroke-width="2" stroke-miterlimit="10" d="M97.001,150.592c0-3.072-1.723-5.744-4.249-7.1
		c1.51-2.441,1.663-5.617,0.129-8.275c-1.538-2.662-4.362-4.113-7.23-4.025c0.086-2.869-1.367-5.693-4.025-7.229
		c-2.662-1.537-5.832-1.381-8.275,0.129c-1.357-2.529-4.027-4.248-7.1-4.248s-5.742,1.719-7.102,4.248
		c-2.44-1.51-5.612-1.666-8.272-0.129c-2.661,1.535-4.113,4.359-4.026,7.229c-2.871-0.086-5.693,1.367-7.229,4.025
		c-1.536,2.66-1.381,5.834,0.129,8.275c-2.528,1.355-4.249,4.027-4.249,7.1s1.721,5.74,4.249,7.1
		c-1.51,2.441-1.665,5.615-0.129,8.273c1.536,2.662,4.36,4.111,7.23,4.025c-0.088,2.869,1.364,5.695,4.025,7.232
		c2.66,1.535,5.832,1.381,8.274-0.131c1.358,2.527,4.027,4.248,7.1,4.248s5.742-1.721,7.1-4.25c2.443,1.514,5.613,1.668,8.275,0.133
		c2.66-1.537,4.111-4.363,4.025-7.232c2.868,0.086,5.692-1.363,7.23-4.023c1.536-2.66,1.381-5.834-0.131-8.275
		C95.278,156.332,97.001,153.664,97.001,150.592z"/>
	<path fill="#EE3968" stroke="#CC3333" stroke-width="2" stroke-miterlimit="10" d="M83.023,144.967
		c4.02,8.332-16.773,19.875-16.773,19.875s-20.943-11.641-16.728-19.875c6.95-13.578,16.75-2.076,16.75-2.076
		S76.473,131.389,83.023,144.967z"/>
	<circle fill="#CB9966" stroke="#FDCC9A" stroke-miterlimit="10" cx="66.25" cy="128.529" r="2.75"/>
	<circle fill="#CB9966" stroke="#FDCC9A" stroke-miterlimit="10" cx="77.269" cy="131.279" r="2.75"/>
	<circle fill="#CB9966" stroke="#FDCC9A" stroke-miterlimit="10" cx="86.936" cy="138.342" r="2.75"/>
	<circle fill="#CB9966" stroke="#FDCC9A" stroke-miterlimit="10" cx="89.686" cy="150.592" r="2.75"/>
	<circle fill="#CB9966" stroke="#FDCC9A" stroke-miterlimit="10" cx="66.25" cy="172.864" r="2.75"/>
	<circle fill="#CB9966" stroke="#FDCC9A" stroke-miterlimit="10" cx="78.02" cy="170.112" r="2.75"/>
	<circle fill="#CB9966" stroke="#FDCC9A" stroke-miterlimit="10" cx="86.936" cy="162.091" r="2.75"/>
	<circle fill="#CB9966" stroke="#FDCC9A" stroke-miterlimit="10" cx="55.17" cy="131.174" r="2.75"/>
	<circle fill="#CB9966" stroke="#FDCC9A" stroke-miterlimit="10" cx="45.504" cy="138.236" r="2.75"/>
	<circle fill="#CB9966" stroke="#FDCC9A" stroke-miterlimit="10" cx="42.754" cy="150.486" r="2.75"/>
	<circle fill="#CB9966" stroke="#FDCC9A" stroke-miterlimit="10" cx="54.42" cy="170.007" r="2.75"/>
	<circle fill="#CB9966" stroke="#FDCC9A" stroke-miterlimit="10" cx="45.504" cy="161.985" r="2.75"/>
	<path fill="#FDCC9A" stroke="#CB9966" stroke-width="2" stroke-miterlimit="10" d="M97,51c0-3.072-1.723-5.744-4.249-7.1
		c1.51-2.441,1.663-5.617,0.129-8.275c-1.538-2.662-4.362-4.113-7.23-4.025c0.086-2.869-1.367-5.693-4.025-7.229
		c-2.662-1.537-5.832-1.381-8.275,0.129c-1.357-2.529-4.027-4.248-7.1-4.248s-5.742,1.719-7.102,4.248
		c-2.44-1.51-5.612-1.666-8.272-0.129c-2.661,1.535-4.113,4.359-4.026,7.229c-2.871-0.086-5.693,1.367-7.229,4.025
		c-1.536,2.66-1.381,5.834,0.129,8.275C37.22,45.256,35.5,47.928,35.5,51s1.721,5.74,4.249,7.1c-1.51,2.441-1.665,5.615-0.129,8.273
		c1.536,2.662,4.36,4.111,7.23,4.025c-0.088,2.869,1.364,5.695,4.025,7.232c2.66,1.535,5.832,1.381,8.274-0.131
		c1.358,2.527,4.027,4.248,7.1,4.248s5.742-1.721,7.1-4.25c2.443,1.514,5.613,1.668,8.275,0.133c2.66-1.537,4.111-4.363,4.025-7.232
		c2.868,0.086,5.692-1.363,7.23-4.023c1.536-2.66,1.381-5.834-0.131-8.275C95.278,56.74,97,54.072,97,51z"/>
	<path fill="#EE3968" stroke="#CC3333" stroke-width="2" stroke-miterlimit="10" d="M83.023,45.375
		C87.042,53.707,66.25,65.25,66.25,65.25S45.306,53.609,49.522,45.375c6.95-13.578,16.75-2.076,16.75-2.076
		S76.472,31.797,83.023,45.375z"/>
	<circle fill="#CB9966" stroke="#FDCC9A" stroke-miterlimit="10" cx="66.25" cy="28.938" r="2.75"/>
	<circle fill="#CB9966" stroke="#FDCC9A" stroke-miterlimit="10" cx="77.269" cy="31.688" r="2.75"/>
	<circle fill="#CB9966" stroke="#FDCC9A" stroke-miterlimit="10" cx="86.935" cy="38.75" r="2.75"/>
	<circle fill="#CB9966" stroke="#FDCC9A" stroke-miterlimit="10" cx="89.685" cy="51" r="2.75"/>
	<circle fill="#CB9966" stroke="#FDCC9A" stroke-miterlimit="10" cx="66.25" cy="73.272" r="2.75"/>
	<circle fill="#CB9966" stroke="#FDCC9A" stroke-miterlimit="10" cx="78.019" cy="70.521" r="2.75"/>
	<circle fill="#CB9966" stroke="#FDCC9A" stroke-miterlimit="10" cx="86.935" cy="62.499" r="2.75"/>
	<circle fill="#CB9966" stroke="#FDCC9A" stroke-miterlimit="10" cx="55.17" cy="31.582" r="2.75"/>
	<circle fill="#CB9966" stroke="#FDCC9A" stroke-miterlimit="10" cx="45.503" cy="38.645" r="2.75"/>
	<circle fill="#CB9966" stroke="#FDCC9A" stroke-miterlimit="10" cx="42.753" cy="50.895" r="2.75"/>
	<circle fill="#CB9966" stroke="#FDCC9A" stroke-miterlimit="10" cx="54.419" cy="70.415" r="2.75"/>
	<circle fill="#CB9966" stroke="#FDCC9A" stroke-miterlimit="10" cx="45.503" cy="62.394" r="2.75"/>
	<path fill="#FDCC9A" stroke="#CB9966" stroke-width="2" stroke-miterlimit="10" d="M245.625,250.716c0-3.072-1.723-5.744-4.25-7.1
		c1.51-2.441,1.664-5.617,0.129-8.275c-1.537-2.662-4.361-4.113-7.23-4.025c0.086-2.869-1.367-5.693-4.025-7.229
		c-2.662-1.537-5.832-1.381-8.275,0.129c-1.357-2.529-4.027-4.248-7.1-4.248s-5.742,1.719-7.102,4.248
		c-2.439-1.51-5.611-1.666-8.271-0.129c-2.662,1.535-4.113,4.359-4.027,7.229c-2.871-0.086-5.693,1.367-7.229,4.025
		c-1.536,2.66-1.381,5.834,0.129,8.275c-2.528,1.355-4.249,4.027-4.249,7.1s1.721,5.74,4.249,7.1
		c-1.51,2.441-1.665,5.615-0.129,8.273c1.536,2.662,4.36,4.111,7.231,4.025c-0.088,2.869,1.363,5.695,4.025,7.232
		c2.66,1.535,5.832,1.381,8.273-0.131c1.359,2.527,4.027,4.248,7.1,4.248s5.742-1.721,7.1-4.25c2.443,1.514,5.613,1.668,8.275,0.133
		c2.66-1.537,4.111-4.363,4.025-7.232c2.869,0.086,5.693-1.363,7.23-4.023s1.381-5.834-0.131-8.275
		C243.902,256.456,245.625,253.788,245.625,250.716z"/>
	<path fill="#EE3968" stroke="#CC3333" stroke-width="2" stroke-miterlimit="10" d="M231.646,245.091
		c4.02,8.332-16.773,19.875-16.773,19.875s-20.943-11.641-16.727-19.875c6.949-13.578,16.75-2.076,16.75-2.076
		S225.096,231.513,231.646,245.091z"/>
	<circle fill="#CB9966" stroke="#FDCC9A" stroke-miterlimit="10" cx="214.873" cy="228.653" r="2.75"/>
	<circle fill="#CB9966" stroke="#FDCC9A" stroke-miterlimit="10" cx="225.893" cy="231.403" r="2.75"/>
	<circle fill="#CB9966" stroke="#FDCC9A" stroke-miterlimit="10" cx="235.559" cy="238.466" r="2.75"/>
	<circle fill="#CB9966" stroke="#FDCC9A" stroke-miterlimit="10" cx="238.309" cy="250.716" r="2.75"/>
	<circle fill="#CB9966" stroke="#FDCC9A" stroke-miterlimit="10" cx="214.873" cy="272.988" r="2.75"/>
	<circle fill="#CB9966" stroke="#FDCC9A" stroke-miterlimit="10" cx="226.643" cy="270.236" r="2.75"/>
	<circle fill="#CB9966" stroke="#FDCC9A" stroke-miterlimit="10" cx="235.559" cy="262.215" r="2.75"/>
	<circle fill="#CB9966" stroke="#FDCC9A" stroke-miterlimit="10" cx="203.794" cy="231.298" r="2.749"/>
	<circle fill="#CB9966" stroke="#FDCC9A" stroke-miterlimit="10" cx="194.127" cy="238.36" r="2.75"/>
	<circle fill="#CB9966" stroke="#FDCC9A" stroke-miterlimit="10" cx="191.377" cy="250.61" r="2.75"/>
	<circle fill="#CB9966" stroke="#FDCC9A" stroke-miterlimit="10" cx="203.043" cy="270.131" r="2.75"/>
	<circle fill="#CB9966" stroke="#FDCC9A" stroke-miterlimit="10" cx="194.127" cy="262.109" r="2.75"/>
	<path fill="#FDCC9A" stroke="#CB9966" stroke-width="2" stroke-miterlimit="10" d="M245.625,151.218c0-3.072-1.723-5.744-4.25-7.1
		c1.51-2.441,1.664-5.617,0.129-8.275c-1.537-2.662-4.361-4.113-7.23-4.025c0.086-2.869-1.367-5.693-4.025-7.229
		c-2.662-1.537-5.832-1.381-8.275,0.129c-1.357-2.529-4.027-4.248-7.1-4.248s-5.742,1.719-7.102,4.248
		c-2.439-1.51-5.611-1.666-8.271-0.129c-2.662,1.535-4.113,4.359-4.027,7.229c-2.871-0.086-5.693,1.367-7.229,4.025
		c-1.536,2.66-1.381,5.834,0.129,8.275c-2.528,1.355-4.249,4.027-4.249,7.1s1.721,5.74,4.249,7.1
		c-1.51,2.441-1.665,5.615-0.129,8.273c1.536,2.662,4.36,4.111,7.231,4.025c-0.088,2.869,1.363,5.695,4.025,7.232
		c2.66,1.535,5.832,1.381,8.273-0.131c1.359,2.527,4.027,4.248,7.1,4.248s5.742-1.721,7.1-4.25c2.443,1.514,5.613,1.668,8.275,0.133
		c2.66-1.537,4.111-4.363,4.025-7.232c2.869,0.086,5.693-1.363,7.23-4.023s1.381-5.834-0.131-8.275
		C243.902,156.958,245.625,154.29,245.625,151.218z"/>
	<path fill="#EE3968" stroke="#CC3333" stroke-width="2" stroke-miterlimit="10" d="M231.646,145.593
		c4.02,8.332-16.773,19.875-16.773,19.875s-20.943-11.641-16.727-19.875c6.949-13.578,16.75-2.076,16.75-2.076
		S225.096,132.015,231.646,145.593z"/>
	<circle fill="#CB9966" stroke="#FDCC9A" stroke-miterlimit="10" cx="214.873" cy="129.155" r="2.75"/>
	<circle fill="#CB9966" stroke="#FDCC9A" stroke-miterlimit="10" cx="225.893" cy="131.905" r="2.75"/>
	<circle fill="#CB9966" stroke="#FDCC9A" stroke-miterlimit="10" cx="235.559" cy="138.968" r="2.75"/>
	<circle fill="#CB9966" stroke="#FDCC9A" stroke-miterlimit="10" cx="238.309" cy="151.218" r="2.75"/>
	<circle fill="#CB9966" stroke="#FDCC9A" stroke-miterlimit="10" cx="214.873" cy="173.49" r="2.75"/>
	<circle fill="#CB9966" stroke="#FDCC9A" stroke-miterlimit="10" cx="226.643" cy="170.738" r="2.75"/>
	<circle fill="#CB9966" stroke="#FDCC9A" stroke-miterlimit="10" cx="235.559" cy="162.717" r="2.75"/>
	<circle fill="#CB9966" stroke="#FDCC9A" stroke-miterlimit="10" cx="203.794" cy="131.8" r="2.749"/>
	<circle fill="#CB9966" stroke="#FDCC9A" stroke-miterlimit="10" cx="194.127" cy="138.862" r="2.75"/>
	<circle fill="#CB9966" stroke="#FDCC9A" stroke-miterlimit="10" cx="191.377" cy="151.112" r="2.75"/>
	<circle fill="#CB9966" stroke="#FDCC9A" stroke-miterlimit="10" cx="203.043" cy="170.633" r="2.75"/>
	<circle fill="#CB9966" stroke="#FDCC9A" stroke-miterlimit="10" cx="194.127" cy="162.611" r="2.75"/>
	<path fill="#FDCC9A" stroke="#CB9966" stroke-width="2" stroke-miterlimit="10" d="M245.623,51.625c0-3.072-1.723-5.744-4.248-7.1
		c1.51-2.441,1.662-5.617,0.129-8.275c-1.539-2.662-4.363-4.113-7.23-4.025c0.086-2.869-1.367-5.693-4.025-7.229
		c-2.662-1.537-5.832-1.381-8.275,0.129c-1.357-2.529-4.027-4.248-7.1-4.248s-5.742,1.719-7.102,4.248
		c-2.44-1.51-5.612-1.666-8.272-0.129c-2.661,1.535-4.113,4.359-4.026,7.229c-2.871-0.086-5.693,1.367-7.229,4.025
		c-1.536,2.66-1.381,5.834,0.129,8.275c-2.528,1.355-4.249,4.027-4.249,7.1s1.721,5.74,4.249,7.1
		c-1.51,2.441-1.665,5.615-0.129,8.274c1.536,2.662,4.36,4.111,7.23,4.025c-0.088,2.869,1.364,5.695,4.025,7.232
		c2.66,1.535,5.832,1.381,8.274-0.131c1.358,2.527,4.027,4.248,7.1,4.248s5.742-1.721,7.1-4.25c2.443,1.514,5.613,1.668,8.275,0.133
		c2.66-1.537,4.111-4.363,4.025-7.232c2.867,0.086,5.691-1.363,7.23-4.023c1.535-2.661,1.381-5.834-0.131-8.276
		C243.9,57.366,245.623,54.698,245.623,51.625z"/>
	<path fill="#EE3968" stroke="#CC3333" stroke-width="2" stroke-miterlimit="10" d="M231.646,46
		c4.02,8.332-16.773,19.875-16.773,19.875S193.93,54.235,198.146,46c6.95-13.578,16.75-2.076,16.75-2.076S225.096,32.422,231.646,46
		z"/>
	<circle fill="#CB9966" stroke="#FDCC9A" stroke-miterlimit="10" cx="214.873" cy="29.563" r="2.75"/>
	<circle fill="#CB9966" stroke="#FDCC9A" stroke-miterlimit="10" cx="225.892" cy="32.313" r="2.749"/>
	<circle fill="#CB9966" stroke="#FDCC9A" stroke-miterlimit="10" cx="235.559" cy="39.375" r="2.75"/>
	<circle fill="#CB9966" stroke="#FDCC9A" stroke-miterlimit="10" cx="238.309" cy="51.625" r="2.75"/>
	<circle fill="#CB9966" stroke="#FDCC9A" stroke-miterlimit="10" cx="214.873" cy="73.898" r="2.75"/>
	<circle fill="#CB9966" stroke="#FDCC9A" stroke-miterlimit="10" cx="226.643" cy="71.146" r="2.75"/>
	<circle fill="#CB9966" stroke="#FDCC9A" stroke-miterlimit="10" cx="235.559" cy="63.125" r="2.75"/>
	<circle fill="#CB9966" stroke="#FDCC9A" stroke-miterlimit="10" cx="203.793" cy="32.208" r="2.75"/>
	<circle fill="#CB9966" stroke="#FDCC9A" stroke-miterlimit="10" cx="194.127" cy="39.27" r="2.75"/>
	<circle fill="#CB9966" stroke="#FDCC9A" stroke-miterlimit="10" cx="191.377" cy="51.52" r="2.75"/>
	<circle fill="#CB9966" stroke="#FDCC9A" stroke-miterlimit="10" cx="203.043" cy="71.041" r="2.75"/>
	<circle fill="#CB9966" stroke="#FDCC9A" stroke-miterlimit="10" cx="194.127" cy="63.019" r="2.75"/>
	<path fill="#FDCC9A" stroke="#CB9966" stroke-width="2" stroke-miterlimit="10" d="M245.729,250.513c0-3.072-1.723-5.744-4.248-7.1
		c1.51-2.441,1.662-5.617,0.129-8.275c-1.539-2.662-4.363-4.113-7.23-4.025c0.086-2.869-1.367-5.693-4.025-7.229
		c-2.662-1.537-5.832-1.381-8.275,0.129c-1.357-2.529-4.027-4.248-7.1-4.248s-5.742,1.719-7.102,4.248
		c-2.441-1.51-5.613-1.666-8.273-0.129c-2.66,1.535-4.113,4.359-4.025,7.229c-2.871-0.086-5.693,1.367-7.23,4.025
		c-1.536,2.66-1.381,5.834,0.129,8.275c-2.528,1.355-4.249,4.027-4.249,7.1s1.721,5.74,4.249,7.1
		c-1.51,2.441-1.665,5.615-0.129,8.273c1.537,2.662,4.361,4.111,7.23,4.025c-0.088,2.869,1.365,5.695,4.025,7.232
		c2.66,1.535,5.832,1.381,8.275-0.131c1.357,2.527,4.027,4.248,7.1,4.248s5.742-1.721,7.1-4.25c2.443,1.514,5.613,1.668,8.275,0.133
		c2.66-1.537,4.111-4.363,4.025-7.232c2.867,0.086,5.691-1.363,7.23-4.023c1.535-2.66,1.381-5.834-0.131-8.275
		C244.006,256.253,245.729,253.585,245.729,250.513z"/>
	<path fill="#EE3968" stroke="#CC3333" stroke-width="2" stroke-miterlimit="10" d="M231.752,244.888
		c4.02,8.332-16.773,19.875-16.773,19.875s-20.943-11.641-16.729-19.875c6.951-13.578,16.75-2.076,16.75-2.076
		S225.201,231.31,231.752,244.888z"/>
	<circle fill="#CB9966" stroke="#FDCC9A" stroke-miterlimit="10" cx="214.979" cy="228.45" r="2.75"/>
	<circle fill="#CB9966" stroke="#FDCC9A" stroke-miterlimit="10" cx="225.997" cy="231.2" r="2.749"/>
	<circle fill="#CB9966" stroke="#FDCC9A" stroke-miterlimit="10" cx="235.664" cy="238.263" r="2.75"/>
	<circle fill="#CB9966" stroke="#FDCC9A" stroke-miterlimit="10" cx="238.414" cy="250.513" r="2.75"/>
	<circle fill="#CB9966" stroke="#FDCC9A" stroke-miterlimit="10" cx="214.979" cy="272.785" r="2.75"/>
	<circle fill="#CB9966" stroke="#FDCC9A" stroke-miterlimit="10" cx="226.748" cy="270.033" r="2.75"/>
	<circle fill="#CB9966" stroke="#FDCC9A" stroke-miterlimit="10" cx="235.664" cy="262.012" r="2.75"/>
	<circle fill="#CB9966" stroke="#FDCC9A" stroke-miterlimit="10" cx="203.898" cy="231.095" r="2.75"/>
	<circle fill="#CB9966" stroke="#FDCC9A" stroke-miterlimit="10" cx="194.232" cy="238.157" r="2.75"/>
	<circle fill="#CB9966" stroke="#FDCC9A" stroke-miterlimit="10" cx="191.482" cy="250.407" r="2.75"/>
	<circle fill="#CB9966" stroke="#FDCC9A" stroke-miterlimit="10" cx="203.148" cy="269.928" r="2.75"/>
	<circle fill="#CB9966" stroke="#FDCC9A" stroke-miterlimit="10" cx="194.232" cy="261.906" r="2.75"/>
	<path fill="#FDCC9A" stroke="#CB9966" stroke-width="2" stroke-miterlimit="10" d="M245.729,151.014c0-3.072-1.723-5.744-4.248-7.1
		c1.51-2.441,1.662-5.617,0.129-8.275c-1.539-2.662-4.363-4.113-7.23-4.025c0.086-2.869-1.367-5.693-4.025-7.229
		c-2.662-1.537-5.832-1.381-8.275,0.129c-1.357-2.529-4.027-4.248-7.1-4.248s-5.742,1.719-7.102,4.248
		c-2.441-1.51-5.613-1.666-8.273-0.129c-2.66,1.535-4.113,4.359-4.025,7.229c-2.871-0.086-5.693,1.367-7.23,4.025
		c-1.536,2.66-1.381,5.834,0.129,8.275c-2.528,1.355-4.249,4.027-4.249,7.1s1.721,5.74,4.249,7.1
		c-1.51,2.441-1.665,5.615-0.129,8.273c1.537,2.662,4.361,4.111,7.23,4.025c-0.088,2.869,1.365,5.695,4.025,7.232
		c2.66,1.535,5.832,1.381,8.275-0.131c1.357,2.527,4.027,4.248,7.1,4.248s5.742-1.721,7.1-4.25c2.443,1.514,5.613,1.668,8.275,0.133
		c2.66-1.537,4.111-4.363,4.025-7.232c2.867,0.086,5.691-1.363,7.23-4.023c1.535-2.66,1.381-5.834-0.131-8.275
		C244.006,156.754,245.729,154.086,245.729,151.014z"/>
	<path fill="#EE3968" stroke="#CC3333" stroke-width="2" stroke-miterlimit="10" d="M231.752,145.389
		c4.02,8.332-16.773,19.875-16.773,19.875s-20.943-11.641-16.729-19.875c6.951-13.578,16.75-2.076,16.75-2.076
		S225.201,131.811,231.752,145.389z"/>
	<circle fill="#CB9966" stroke="#FDCC9A" stroke-miterlimit="10" cx="214.979" cy="128.951" r="2.75"/>
	<circle fill="#CB9966" stroke="#FDCC9A" stroke-miterlimit="10" cx="225.997" cy="131.701" r="2.749"/>
	<circle fill="#CB9966" stroke="#FDCC9A" stroke-miterlimit="10" cx="235.664" cy="138.764" r="2.75"/>
	<circle fill="#CB9966" stroke="#FDCC9A" stroke-miterlimit="10" cx="238.414" cy="151.014" r="2.75"/>
	<circle fill="#CB9966" stroke="#FDCC9A" stroke-miterlimit="10" cx="214.979" cy="173.286" r="2.75"/>
	<circle fill="#CB9966" stroke="#FDCC9A" stroke-miterlimit="10" cx="226.748" cy="170.534" r="2.75"/>
	<circle fill="#CB9966" stroke="#FDCC9A" stroke-miterlimit="10" cx="235.664" cy="162.513" r="2.75"/>
	<circle fill="#CB9966" stroke="#FDCC9A" stroke-miterlimit="10" cx="203.898" cy="131.596" r="2.75"/>
	<circle fill="#CB9966" stroke="#FDCC9A" stroke-miterlimit="10" cx="194.232" cy="138.658" r="2.75"/>
	<circle fill="#CB9966" stroke="#FDCC9A" stroke-miterlimit="10" cx="191.482" cy="150.908" r="2.75"/>
	<circle fill="#CB9966" stroke="#FDCC9A" stroke-miterlimit="10" cx="203.148" cy="170.429" r="2.75"/>
	<circle fill="#CB9966" stroke="#FDCC9A" stroke-miterlimit="10" cx="194.232" cy="162.407" r="2.75"/>
	<path fill="#FDCC9A" stroke="#CB9966" stroke-width="2" stroke-miterlimit="10" d="M245.729,51.422c0-3.072-1.723-5.744-4.249-7.1
		c1.51-2.441,1.663-5.617,0.129-8.275c-1.538-2.662-4.362-4.113-7.23-4.025c0.086-2.869-1.367-5.693-4.025-7.229
		c-2.662-1.537-5.832-1.381-8.275,0.129c-1.357-2.529-4.027-4.248-7.1-4.248s-5.742,1.719-7.102,4.248
		c-2.44-1.51-5.612-1.666-8.272-0.129c-2.661,1.535-4.113,4.359-4.026,7.229c-2.871-0.086-5.693,1.367-7.229,4.025
		c-1.536,2.66-1.381,5.834,0.129,8.275c-2.528,1.355-4.249,4.027-4.249,7.1s1.721,5.74,4.249,7.1
		c-1.51,2.441-1.665,5.615-0.129,8.273c1.536,2.662,4.36,4.111,7.23,4.025c-0.088,2.869,1.364,5.695,4.025,7.232
		c2.66,1.535,5.832,1.381,8.274-0.131c1.358,2.527,4.027,4.248,7.1,4.248s5.742-1.721,7.1-4.25c2.443,1.514,5.613,1.668,8.275,0.133
		c2.66-1.537,4.111-4.363,4.025-7.232c2.868,0.086,5.692-1.363,7.23-4.023c1.536-2.66,1.381-5.834-0.131-8.275
		C244.006,57.162,245.729,54.494,245.729,51.422z"/>
	<path fill="#EE3968" stroke="#CC3333" stroke-width="2" stroke-miterlimit="10" d="M231.751,45.797
		c4.02,8.332-16.773,19.875-16.773,19.875s-20.943-11.641-16.728-19.875C205.2,32.219,215,43.721,215,43.721
		S225.2,32.219,231.751,45.797z"/>
	<circle fill="#CB9966" stroke="#FDCC9A" stroke-miterlimit="10" cx="214.978" cy="29.359" r="2.75"/>
	<circle fill="#CB9966" stroke="#FDCC9A" stroke-miterlimit="10" cx="225.997" cy="32.109" r="2.75"/>
	<circle fill="#CB9966" stroke="#FDCC9A" stroke-miterlimit="10" cx="235.663" cy="39.172" r="2.75"/>
	<circle fill="#CB9966" stroke="#FDCC9A" stroke-miterlimit="10" cx="238.413" cy="51.422" r="2.75"/>
	<circle fill="#CB9966" stroke="#FDCC9A" stroke-miterlimit="10" cx="214.978" cy="73.694" r="2.75"/>
	<circle fill="#CB9966" stroke="#FDCC9A" stroke-miterlimit="10" cx="226.747" cy="70.942" r="2.75"/>
	<circle fill="#CB9966" stroke="#FDCC9A" stroke-miterlimit="10" cx="235.663" cy="62.921" r="2.75"/>
	<circle fill="#CB9966" stroke="#FDCC9A" stroke-miterlimit="10" cx="203.898" cy="32.004" r="2.75"/>
	<circle fill="#CB9966" stroke="#FDCC9A" stroke-miterlimit="10" cx="194.231" cy="39.066" r="2.75"/>
	<circle fill="#CB9966" stroke="#FDCC9A" stroke-miterlimit="10" cx="191.481" cy="51.316" r="2.75"/>
	<circle fill="#CB9966" stroke="#FDCC9A" stroke-miterlimit="10" cx="203.147" cy="70.837" r="2.75"/>
	<circle fill="#CB9966" stroke="#FDCC9A" stroke-miterlimit="10" cx="194.231" cy="62.815" r="2.75"/>
	<path fill="#FDCC9A" stroke="#CB9966" stroke-width="2" stroke-miterlimit="10" d="M97.011,448.807c0-3.072-1.723-5.744-4.249-7.1
		c1.51-2.441,1.663-5.617,0.129-8.275c-1.538-2.662-4.362-4.113-7.23-4.025c0.086-2.869-1.367-5.693-4.025-7.229
		c-2.662-1.537-5.832-1.381-8.275,0.129c-1.357-2.529-4.027-4.248-7.1-4.248s-5.742,1.719-7.102,4.248
		c-2.44-1.51-5.612-1.666-8.272-0.129c-2.661,1.535-4.113,4.359-4.026,7.229c-2.871-0.086-5.693,1.367-7.229,4.025
		c-1.536,2.66-1.381,5.834,0.129,8.275c-2.528,1.355-4.249,4.027-4.249,7.1s1.721,5.74,4.249,7.1
		c-1.51,2.441-1.665,5.615-0.129,8.273c1.536,2.662,4.36,4.111,7.23,4.025c-0.088,2.869,1.364,5.695,4.025,7.232
		c2.66,1.535,5.832,1.381,8.274-0.131c1.358,2.527,4.027,4.248,7.1,4.248s5.742-1.721,7.1-4.25c2.443,1.514,5.613,1.668,8.275,0.133
		c2.66-1.537,4.111-4.363,4.025-7.232c2.868,0.086,5.692-1.363,7.23-4.023c1.536-2.66,1.381-5.834-0.131-8.275
		C95.288,454.547,97.011,451.879,97.011,448.807z"/>
	<path fill="#EE3968" stroke="#CC3333" stroke-width="2" stroke-miterlimit="10" d="M83.033,443.182
		c4.02,8.332-16.773,19.875-16.773,19.875s-20.943-11.641-16.728-19.875c6.95-13.578,16.75-2.076,16.75-2.076
		S76.482,429.604,83.033,443.182z"/>
	<circle fill="#CB9966" stroke="#FDCC9A" stroke-miterlimit="10" cx="66.26" cy="426.744" r="2.75"/>
	<circle fill="#CB9966" stroke="#FDCC9A" stroke-miterlimit="10" cx="77.279" cy="429.494" r="2.75"/>
	<circle fill="#CB9966" stroke="#FDCC9A" stroke-miterlimit="10" cx="86.945" cy="436.557" r="2.75"/>
	<circle fill="#CB9966" stroke="#FDCC9A" stroke-miterlimit="10" cx="89.695" cy="448.807" r="2.75"/>
	<circle fill="#CB9966" stroke="#FDCC9A" stroke-miterlimit="10" cx="66.26" cy="471.079" r="2.75"/>
	<circle fill="#CB9966" stroke="#FDCC9A" stroke-miterlimit="10" cx="78.029" cy="468.327" r="2.75"/>
	<circle fill="#CB9966" stroke="#FDCC9A" stroke-miterlimit="10" cx="86.945" cy="460.306" r="2.75"/>
	<circle fill="#CB9966" stroke="#FDCC9A" stroke-miterlimit="10" cx="55.18" cy="429.389" r="2.75"/>
	<circle fill="#CB9966" stroke="#FDCC9A" stroke-miterlimit="10" cx="45.514" cy="436.451" r="2.75"/>
	<circle fill="#CB9966" stroke="#FDCC9A" stroke-miterlimit="10" cx="42.764" cy="448.701" r="2.75"/>
	<circle fill="#CB9966" stroke="#FDCC9A" stroke-miterlimit="10" cx="54.43" cy="468.222" r="2.75"/>
	<circle fill="#CB9966" stroke="#FDCC9A" stroke-miterlimit="10" cx="45.514" cy="460.2" r="2.75"/>
	<path fill="#FDCC9A" stroke="#CB9966" stroke-width="2" stroke-miterlimit="10" d="M97.011,349.308c0-3.072-1.723-5.744-4.249-7.1
		c1.51-2.441,1.663-5.617,0.129-8.275c-1.538-2.662-4.362-4.113-7.23-4.025c0.086-2.869-1.367-5.693-4.025-7.229
		c-2.662-1.537-5.832-1.381-8.275,0.129c-1.357-2.529-4.027-4.248-7.1-4.248s-5.742,1.719-7.102,4.248
		c-2.44-1.51-5.612-1.666-8.272-0.129c-2.661,1.535-4.113,4.359-4.026,7.229c-2.871-0.086-5.693,1.367-7.229,4.025
		c-1.536,2.66-1.381,5.834,0.129,8.275c-2.528,1.355-4.249,4.027-4.249,7.1s1.721,5.74,4.249,7.1
		c-1.51,2.441-1.665,5.615-0.129,8.273c1.536,2.662,4.36,4.111,7.23,4.025c-0.088,2.869,1.364,5.695,4.025,7.232
		c2.66,1.535,5.832,1.381,8.274-0.131c1.358,2.527,4.027,4.248,7.1,4.248s5.742-1.721,7.1-4.25c2.443,1.514,5.613,1.668,8.275,0.133
		c2.66-1.537,4.111-4.363,4.025-7.232c2.868,0.086,5.692-1.363,7.23-4.023c1.536-2.66,1.381-5.834-0.131-8.275
		C95.288,355.048,97.011,352.38,97.011,349.308z"/>
	<path fill="#EE3968" stroke="#CC3333" stroke-width="2" stroke-miterlimit="10" d="M83.033,343.683
		c4.02,8.332-16.773,19.875-16.773,19.875s-20.943-11.641-16.728-19.875c6.95-13.578,16.75-2.076,16.75-2.076
		S76.482,330.104,83.033,343.683z"/>
	<circle fill="#CB9966" stroke="#FDCC9A" stroke-miterlimit="10" cx="66.26" cy="327.245" r="2.75"/>
	<circle fill="#CB9966" stroke="#FDCC9A" stroke-miterlimit="10" cx="77.279" cy="329.995" r="2.75"/>
	<circle fill="#CB9966" stroke="#FDCC9A" stroke-miterlimit="10" cx="86.945" cy="337.058" r="2.75"/>
	<circle fill="#CB9966" stroke="#FDCC9A" stroke-miterlimit="10" cx="89.695" cy="349.308" r="2.75"/>
	<circle fill="#CB9966" stroke="#FDCC9A" stroke-miterlimit="10" cx="66.26" cy="371.58" r="2.75"/>
	<circle fill="#CB9966" stroke="#FDCC9A" stroke-miterlimit="10" cx="78.029" cy="368.828" r="2.75"/>
	<circle fill="#CB9966" stroke="#FDCC9A" stroke-miterlimit="10" cx="86.945" cy="360.807" r="2.75"/>
	<circle fill="#CB9966" stroke="#FDCC9A" stroke-miterlimit="10" cx="55.18" cy="329.89" r="2.75"/>
	<circle fill="#CB9966" stroke="#FDCC9A" stroke-miterlimit="10" cx="45.514" cy="336.952" r="2.75"/>
	<circle fill="#CB9966" stroke="#FDCC9A" stroke-miterlimit="10" cx="42.764" cy="349.202" r="2.75"/>
	<circle fill="#CB9966" stroke="#FDCC9A" stroke-miterlimit="10" cx="54.43" cy="368.723" r="2.75"/>
	<circle fill="#CB9966" stroke="#FDCC9A" stroke-miterlimit="10" cx="45.514" cy="360.701" r="2.75"/>
	<path fill="#FDCC9A" stroke="#CB9966" stroke-width="2" stroke-miterlimit="10" d="M97.01,249.716c0-3.072-1.723-5.744-4.249-7.1
		c1.51-2.441,1.663-5.617,0.129-8.275c-1.538-2.662-4.362-4.113-7.23-4.025c0.086-2.869-1.367-5.693-4.025-7.229
		c-2.662-1.537-5.832-1.381-8.275,0.129c-1.357-2.529-4.027-4.248-7.1-4.248s-5.742,1.719-7.102,4.248
		c-2.44-1.51-5.612-1.666-8.272-0.129c-2.661,1.535-4.113,4.359-4.026,7.229c-2.871-0.086-5.693,1.367-7.229,4.025
		c-1.536,2.66-1.381,5.834,0.129,8.275c-2.528,1.355-4.249,4.027-4.249,7.1s1.721,5.74,4.249,7.1
		c-1.51,2.441-1.665,5.615-0.129,8.273c1.536,2.662,4.36,4.111,7.23,4.025c-0.088,2.869,1.364,5.695,4.025,7.232
		c2.66,1.535,5.832,1.381,8.274-0.131c1.358,2.527,4.027,4.248,7.1,4.248s5.742-1.721,7.1-4.25c2.443,1.514,5.613,1.668,8.275,0.133
		c2.66-1.537,4.111-4.363,4.025-7.232c2.868,0.086,5.692-1.363,7.23-4.023c1.536-2.66,1.381-5.834-0.131-8.275
		C95.288,255.456,97.01,252.788,97.01,249.716z"/>
	<path fill="#EE3968" stroke="#CC3333" stroke-width="2" stroke-miterlimit="10" d="M83.033,244.091
		c4.02,8.332-16.773,19.875-16.773,19.875s-20.943-11.641-16.728-19.875c6.95-13.578,16.75-2.076,16.75-2.076
		S76.482,230.513,83.033,244.091z"/>
	<circle fill="#CB9966" stroke="#FDCC9A" stroke-miterlimit="10" cx="66.259" cy="227.653" r="2.75"/>
	<circle fill="#CB9966" stroke="#FDCC9A" stroke-miterlimit="10" cx="77.278" cy="230.403" r="2.75"/>
	<circle fill="#CB9966" stroke="#FDCC9A" stroke-miterlimit="10" cx="86.945" cy="237.466" r="2.75"/>
	<circle fill="#CB9966" stroke="#FDCC9A" stroke-miterlimit="10" cx="89.695" cy="249.716" r="2.75"/>
	<circle fill="#CB9966" stroke="#FDCC9A" stroke-miterlimit="10" cx="66.259" cy="271.988" r="2.75"/>
	<circle fill="#CB9966" stroke="#FDCC9A" stroke-miterlimit="10" cx="78.029" cy="269.236" r="2.75"/>
	<circle fill="#CB9966" stroke="#FDCC9A" stroke-miterlimit="10" cx="86.945" cy="261.215" r="2.75"/>
	<circle fill="#CB9966" stroke="#FDCC9A" stroke-miterlimit="10" cx="55.18" cy="230.298" r="2.75"/>
	<circle fill="#CB9966" stroke="#FDCC9A" stroke-miterlimit="10" cx="45.513" cy="237.36" r="2.75"/>
	<circle fill="#CB9966" stroke="#FDCC9A" stroke-miterlimit="10" cx="42.763" cy="249.61" r="2.75"/>
	<circle fill="#CB9966" stroke="#FDCC9A" stroke-miterlimit="10" cx="54.429" cy="269.131" r="2.75"/>
	<circle fill="#CB9966" stroke="#FDCC9A" stroke-miterlimit="10" cx="45.513" cy="261.109" r="2.75"/>
	<path fill="#FDCC9A" stroke="#CB9966" stroke-width="2" stroke-miterlimit="10" d="M245.635,449.432c0-3.072-1.723-5.744-4.25-7.1
		c1.51-2.441,1.664-5.617,0.129-8.275c-1.537-2.662-4.361-4.113-7.23-4.025c0.086-2.869-1.367-5.693-4.025-7.229
		c-2.662-1.537-5.832-1.381-8.275,0.129c-1.357-2.529-4.027-4.248-7.1-4.248s-5.742,1.719-7.102,4.248
		c-2.439-1.51-5.611-1.666-8.271-0.129c-2.662,1.535-4.113,4.359-4.027,7.229c-2.871-0.086-5.693,1.367-7.229,4.025
		c-1.537,2.66-1.381,5.834,0.129,8.275c-2.529,1.355-4.25,4.027-4.25,7.1s1.721,5.74,4.25,7.1c-1.51,2.441-1.666,5.615-0.129,8.273
		c1.535,2.662,4.359,4.111,7.23,4.025c-0.088,2.869,1.363,5.695,4.025,7.232c2.66,1.535,5.832,1.381,8.273-0.131
		c1.359,2.527,4.027,4.248,7.1,4.248s5.742-1.721,7.1-4.25c2.443,1.514,5.613,1.668,8.275,0.133c2.66-1.537,4.111-4.363,4.025-7.232
		c2.869,0.086,5.693-1.363,7.23-4.023s1.381-5.834-0.131-8.275C243.912,455.172,245.635,452.504,245.635,449.432z"/>
	<path fill="#EE3968" stroke="#CC3333" stroke-width="2" stroke-miterlimit="10" d="M231.656,443.807
		c4.02,8.332-16.773,19.875-16.773,19.875s-20.943-11.641-16.727-19.875c6.949-13.578,16.75-2.076,16.75-2.076
		S225.105,430.229,231.656,443.807z"/>
	<circle fill="#CB9966" stroke="#FDCC9A" stroke-miterlimit="10" cx="214.883" cy="427.369" r="2.75"/>
	<circle fill="#CB9966" stroke="#FDCC9A" stroke-miterlimit="10" cx="225.902" cy="430.119" r="2.75"/>
	<circle fill="#CB9966" stroke="#FDCC9A" stroke-miterlimit="10" cx="235.568" cy="437.182" r="2.75"/>
	<circle fill="#CB9966" stroke="#FDCC9A" stroke-miterlimit="10" cx="238.318" cy="449.432" r="2.75"/>
	<circle fill="#CB9966" stroke="#FDCC9A" stroke-miterlimit="10" cx="214.883" cy="471.704" r="2.75"/>
	<circle fill="#CB9966" stroke="#FDCC9A" stroke-miterlimit="10" cx="226.652" cy="468.952" r="2.75"/>
	<circle fill="#CB9966" stroke="#FDCC9A" stroke-miterlimit="10" cx="235.568" cy="460.931" r="2.75"/>
	<circle fill="#CB9966" stroke="#FDCC9A" stroke-miterlimit="10" cx="203.804" cy="430.014" r="2.749"/>
	<circle fill="#CB9966" stroke="#FDCC9A" stroke-miterlimit="10" cx="194.137" cy="437.076" r="2.75"/>
	<circle fill="#CB9966" stroke="#FDCC9A" stroke-miterlimit="10" cx="191.387" cy="449.326" r="2.75"/>
	<circle fill="#CB9966" stroke="#FDCC9A" stroke-miterlimit="10" cx="203.053" cy="468.847" r="2.75"/>
	<circle fill="#CB9966" stroke="#FDCC9A" stroke-miterlimit="10" cx="194.137" cy="460.825" r="2.75"/>
	<path fill="#FDCC9A" stroke="#CB9966" stroke-width="2" stroke-miterlimit="10" d="M245.635,349.934c0-3.072-1.723-5.744-4.25-7.1
		c1.51-2.441,1.664-5.617,0.129-8.275c-1.537-2.662-4.361-4.113-7.23-4.025c0.086-2.869-1.367-5.693-4.025-7.229
		c-2.662-1.537-5.832-1.381-8.275,0.129c-1.357-2.529-4.027-4.248-7.1-4.248s-5.742,1.719-7.102,4.248
		c-2.439-1.51-5.611-1.666-8.271-0.129c-2.662,1.535-4.113,4.359-4.027,7.229c-2.871-0.086-5.693,1.367-7.229,4.025
		c-1.537,2.66-1.381,5.834,0.129,8.275c-2.529,1.355-4.25,4.027-4.25,7.1s1.721,5.74,4.25,7.1c-1.51,2.441-1.666,5.615-0.129,8.273
		c1.535,2.662,4.359,4.111,7.23,4.025c-0.088,2.869,1.363,5.695,4.025,7.232c2.66,1.535,5.832,1.381,8.273-0.131
		c1.359,2.527,4.027,4.248,7.1,4.248s5.742-1.721,7.1-4.25c2.443,1.514,5.613,1.668,8.275,0.133c2.66-1.537,4.111-4.363,4.025-7.232
		c2.869,0.086,5.693-1.363,7.23-4.023s1.381-5.834-0.131-8.275C243.912,355.674,245.635,353.006,245.635,349.934z"/>
	<path fill="#EE3968" stroke="#CC3333" stroke-width="2" stroke-miterlimit="10" d="M231.656,344.309
		c4.02,8.332-16.773,19.875-16.773,19.875s-20.943-11.641-16.727-19.875c6.949-13.578,16.75-2.076,16.75-2.076
		S225.105,330.73,231.656,344.309z"/>
	<circle fill="#CB9966" stroke="#FDCC9A" stroke-miterlimit="10" cx="214.883" cy="327.871" r="2.75"/>
	<circle fill="#CB9966" stroke="#FDCC9A" stroke-miterlimit="10" cx="225.902" cy="330.621" r="2.75"/>
	<circle fill="#CB9966" stroke="#FDCC9A" stroke-miterlimit="10" cx="235.568" cy="337.684" r="2.75"/>
	<circle fill="#CB9966" stroke="#FDCC9A" stroke-miterlimit="10" cx="238.318" cy="349.934" r="2.75"/>
	<circle fill="#CB9966" stroke="#FDCC9A" stroke-miterlimit="10" cx="214.883" cy="372.206" r="2.75"/>
	<circle fill="#CB9966" stroke="#FDCC9A" stroke-miterlimit="10" cx="226.652" cy="369.454" r="2.75"/>
	<circle fill="#CB9966" stroke="#FDCC9A" stroke-miterlimit="10" cx="235.568" cy="361.433" r="2.75"/>
	<circle fill="#CB9966" stroke="#FDCC9A" stroke-miterlimit="10" cx="203.804" cy="330.516" r="2.749"/>
	<circle fill="#CB9966" stroke="#FDCC9A" stroke-miterlimit="10" cx="194.137" cy="337.578" r="2.75"/>
	<circle fill="#CB9966" stroke="#FDCC9A" stroke-miterlimit="10" cx="191.387" cy="349.828" r="2.75"/>
	<circle fill="#CB9966" stroke="#FDCC9A" stroke-miterlimit="10" cx="203.053" cy="369.349" r="2.75"/>
	<circle fill="#CB9966" stroke="#FDCC9A" stroke-miterlimit="10" cx="194.137" cy="361.327" r="2.75"/>
	<path fill="#FDCC9A" stroke="#CB9966" stroke-width="2" stroke-miterlimit="10" d="M245.633,250.342c0-3.072-1.723-5.744-4.248-7.1
		c1.51-2.441,1.662-5.617,0.129-8.275c-1.539-2.662-4.363-4.113-7.23-4.025c0.086-2.869-1.367-5.693-4.025-7.229
		c-2.662-1.537-5.832-1.381-8.275,0.129c-1.357-2.529-4.027-4.248-7.1-4.248s-5.742,1.719-7.102,4.248
		c-2.44-1.51-5.612-1.666-8.272-0.129c-2.661,1.535-4.113,4.359-4.026,7.229c-2.871-0.086-5.693,1.367-7.229,4.025
		c-1.536,2.66-1.381,5.834,0.129,8.275c-2.528,1.355-4.249,4.027-4.249,7.1s1.721,5.74,4.249,7.1
		c-1.51,2.441-1.665,5.615-0.129,8.273c1.536,2.662,4.36,4.111,7.23,4.025c-0.088,2.869,1.364,5.695,4.025,7.232
		c2.66,1.535,5.832,1.381,8.274-0.131c1.358,2.527,4.027,4.248,7.1,4.248s5.742-1.721,7.1-4.25c2.443,1.514,5.613,1.668,8.275,0.133
		c2.66-1.537,4.111-4.363,4.025-7.232c2.867,0.086,5.691-1.363,7.23-4.023c1.535-2.66,1.381-5.834-0.131-8.275
		C243.91,256.082,245.633,253.414,245.633,250.342z"/>
	<path fill="#EE3968" stroke="#CC3333" stroke-width="2" stroke-miterlimit="10" d="M231.656,244.717
		c4.02,8.332-16.773,19.875-16.773,19.875s-20.943-11.641-16.728-19.875c6.95-13.578,16.75-2.076,16.75-2.076
		S225.105,231.139,231.656,244.717z"/>
	<circle fill="#CB9966" stroke="#FDCC9A" stroke-miterlimit="10" cx="214.883" cy="228.279" r="2.75"/>
	<circle fill="#CB9966" stroke="#FDCC9A" stroke-miterlimit="10" cx="225.901" cy="231.029" r="2.749"/>
	<circle fill="#CB9966" stroke="#FDCC9A" stroke-miterlimit="10" cx="235.568" cy="238.092" r="2.75"/>
	<circle fill="#CB9966" stroke="#FDCC9A" stroke-miterlimit="10" cx="238.318" cy="250.342" r="2.75"/>
	<circle fill="#CB9966" stroke="#FDCC9A" stroke-miterlimit="10" cx="214.883" cy="272.614" r="2.75"/>
	<circle fill="#CB9966" stroke="#FDCC9A" stroke-miterlimit="10" cx="226.652" cy="269.862" r="2.75"/>
	<circle fill="#CB9966" stroke="#FDCC9A" stroke-miterlimit="10" cx="235.568" cy="261.841" r="2.75"/>
	<circle fill="#CB9966" stroke="#FDCC9A" stroke-miterlimit="10" cx="203.803" cy="230.924" r="2.75"/>
	<circle fill="#CB9966" stroke="#FDCC9A" stroke-miterlimit="10" cx="194.137" cy="237.986" r="2.75"/>
	<circle fill="#CB9966" stroke="#FDCC9A" stroke-miterlimit="10" cx="191.387" cy="250.236" r="2.75"/>
	<circle fill="#CB9966" stroke="#FDCC9A" stroke-miterlimit="10" cx="203.053" cy="269.757" r="2.75"/>
	<circle fill="#CB9966" stroke="#FDCC9A" stroke-miterlimit="10" cx="194.137" cy="261.735" r="2.75"/>
	<path fill="#FDCC9A" stroke="#CB9966" stroke-width="2" stroke-miterlimit="10" d="M245.738,449.229c0-3.072-1.723-5.744-4.248-7.1
		c1.51-2.441,1.662-5.617,0.129-8.275c-1.539-2.662-4.363-4.113-7.23-4.025c0.086-2.869-1.367-5.693-4.025-7.229
		c-2.662-1.537-5.832-1.381-8.275,0.129c-1.357-2.529-4.027-4.248-7.1-4.248s-5.742,1.719-7.102,4.248
		c-2.441-1.51-5.613-1.666-8.273-0.129c-2.66,1.535-4.113,4.359-4.025,7.229c-2.871-0.086-5.693,1.367-7.23,4.025
		c-1.535,2.66-1.381,5.834,0.129,8.275c-2.527,1.355-4.248,4.027-4.248,7.1s1.721,5.74,4.248,7.1
		c-1.51,2.441-1.664,5.615-0.129,8.273c1.537,2.662,4.361,4.111,7.23,4.025c-0.088,2.869,1.365,5.695,4.025,7.232
		c2.66,1.535,5.832,1.381,8.275-0.131c1.357,2.527,4.027,4.248,7.1,4.248s5.742-1.721,7.1-4.25c2.443,1.514,5.613,1.668,8.275,0.133
		c2.66-1.537,4.111-4.363,4.025-7.232c2.867,0.086,5.691-1.363,7.23-4.023c1.535-2.66,1.381-5.834-0.131-8.275
		C244.016,454.969,245.738,452.301,245.738,449.229z"/>
	<path fill="#EE3968" stroke="#CC3333" stroke-width="2" stroke-miterlimit="10" d="M231.762,443.604
		c4.02,8.332-16.773,19.875-16.773,19.875s-20.943-11.641-16.729-19.875c6.951-13.578,16.75-2.076,16.75-2.076
		S225.211,430.025,231.762,443.604z"/>
	<circle fill="#CB9966" stroke="#FDCC9A" stroke-miterlimit="10" cx="214.988" cy="427.166" r="2.75"/>
	<circle fill="#CB9966" stroke="#FDCC9A" stroke-miterlimit="10" cx="226.007" cy="429.916" r="2.749"/>
	<circle fill="#CB9966" stroke="#FDCC9A" stroke-miterlimit="10" cx="235.674" cy="436.979" r="2.75"/>
	<circle fill="#CB9966" stroke="#FDCC9A" stroke-miterlimit="10" cx="238.424" cy="449.229" r="2.75"/>
	<circle fill="#CB9966" stroke="#FDCC9A" stroke-miterlimit="10" cx="214.988" cy="471.501" r="2.75"/>
	<circle fill="#CB9966" stroke="#FDCC9A" stroke-miterlimit="10" cx="226.758" cy="468.749" r="2.75"/>
	<circle fill="#CB9966" stroke="#FDCC9A" stroke-miterlimit="10" cx="235.674" cy="460.728" r="2.75"/>
	<circle fill="#CB9966" stroke="#FDCC9A" stroke-miterlimit="10" cx="203.908" cy="429.811" r="2.75"/>
	<circle fill="#CB9966" stroke="#FDCC9A" stroke-miterlimit="10" cx="194.242" cy="436.873" r="2.75"/>
	<circle fill="#CB9966" stroke="#FDCC9A" stroke-miterlimit="10" cx="191.492" cy="449.123" r="2.75"/>
	<circle fill="#CB9966" stroke="#FDCC9A" stroke-miterlimit="10" cx="203.158" cy="468.644" r="2.75"/>
	<circle fill="#CB9966" stroke="#FDCC9A" stroke-miterlimit="10" cx="194.242" cy="460.622" r="2.75"/>
	<path fill="#FDCC9A" stroke="#CB9966" stroke-width="2" stroke-miterlimit="10" d="M245.738,349.729c0-3.072-1.723-5.744-4.248-7.1
		c1.51-2.441,1.662-5.617,0.129-8.275c-1.539-2.662-4.363-4.113-7.23-4.025c0.086-2.869-1.367-5.693-4.025-7.229
		c-2.662-1.537-5.832-1.381-8.275,0.129c-1.357-2.529-4.027-4.248-7.1-4.248s-5.742,1.719-7.102,4.248
		c-2.441-1.51-5.613-1.666-8.273-0.129c-2.66,1.535-4.113,4.359-4.025,7.229c-2.871-0.086-5.693,1.367-7.23,4.025
		c-1.535,2.66-1.381,5.834,0.129,8.275c-2.527,1.355-4.248,4.027-4.248,7.1s1.721,5.74,4.248,7.1
		c-1.51,2.441-1.664,5.615-0.129,8.273c1.537,2.662,4.361,4.111,7.23,4.025c-0.088,2.869,1.365,5.695,4.025,7.232
		c2.66,1.535,5.832,1.381,8.275-0.131c1.357,2.527,4.027,4.248,7.1,4.248s5.742-1.721,7.1-4.25c2.443,1.514,5.613,1.668,8.275,0.133
		c2.66-1.537,4.111-4.363,4.025-7.232c2.867,0.086,5.691-1.363,7.23-4.023c1.535-2.66,1.381-5.834-0.131-8.275
		C244.016,355.47,245.738,352.802,245.738,349.729z"/>
	<path fill="#EE3968" stroke="#CC3333" stroke-width="2" stroke-miterlimit="10" d="M231.762,344.104
		c4.02,8.332-16.773,19.875-16.773,19.875s-20.943-11.641-16.729-19.875c6.951-13.578,16.75-2.076,16.75-2.076
		S225.211,330.526,231.762,344.104z"/>
	<circle fill="#CB9966" stroke="#FDCC9A" stroke-miterlimit="10" cx="214.988" cy="327.667" r="2.75"/>
	<circle fill="#CB9966" stroke="#FDCC9A" stroke-miterlimit="10" cx="226.007" cy="330.417" r="2.749"/>
	<circle fill="#CB9966" stroke="#FDCC9A" stroke-miterlimit="10" cx="235.674" cy="337.479" r="2.75"/>
	<circle fill="#CB9966" stroke="#FDCC9A" stroke-miterlimit="10" cx="238.424" cy="349.729" r="2.75"/>
	<circle fill="#CB9966" stroke="#FDCC9A" stroke-miterlimit="10" cx="214.988" cy="372.002" r="2.75"/>
	<circle fill="#CB9966" stroke="#FDCC9A" stroke-miterlimit="10" cx="226.758" cy="369.25" r="2.75"/>
	<circle fill="#CB9966" stroke="#FDCC9A" stroke-miterlimit="10" cx="235.674" cy="361.229" r="2.75"/>
	<circle fill="#CB9966" stroke="#FDCC9A" stroke-miterlimit="10" cx="203.908" cy="330.312" r="2.75"/>
	<circle fill="#CB9966" stroke="#FDCC9A" stroke-miterlimit="10" cx="194.242" cy="337.374" r="2.75"/>
	<circle fill="#CB9966" stroke="#FDCC9A" stroke-miterlimit="10" cx="191.492" cy="349.624" r="2.75"/>
	<circle fill="#CB9966" stroke="#FDCC9A" stroke-miterlimit="10" cx="203.158" cy="369.145" r="2.75"/>
	<circle fill="#CB9966" stroke="#FDCC9A" stroke-miterlimit="10" cx="194.242" cy="361.123" r="2.75"/>
	<path fill="#FDCC9A" stroke="#CB9966" stroke-width="2" stroke-miterlimit="10" d="M245.738,250.138c0-3.072-1.723-5.744-4.249-7.1
		c1.51-2.441,1.663-5.617,0.129-8.275c-1.538-2.662-4.362-4.113-7.23-4.025c0.086-2.869-1.367-5.693-4.025-7.229
		c-2.662-1.537-5.832-1.381-8.275,0.129c-1.357-2.529-4.027-4.248-7.1-4.248s-5.742,1.719-7.102,4.248
		c-2.44-1.51-5.612-1.666-8.272-0.129c-2.661,1.535-4.113,4.359-4.026,7.229c-2.871-0.086-5.693,1.367-7.229,4.025
		c-1.536,2.66-1.381,5.834,0.129,8.275c-2.528,1.355-4.249,4.027-4.249,7.1s1.721,5.74,4.249,7.1
		c-1.51,2.441-1.665,5.615-0.129,8.273c1.536,2.662,4.36,4.111,7.23,4.025c-0.088,2.869,1.364,5.695,4.025,7.232
		c2.66,1.535,5.832,1.381,8.274-0.131c1.358,2.527,4.027,4.248,7.1,4.248s5.742-1.721,7.1-4.25c2.443,1.514,5.613,1.668,8.275,0.133
		c2.66-1.537,4.111-4.363,4.025-7.232c2.868,0.086,5.692-1.363,7.23-4.023c1.536-2.66,1.381-5.834-0.131-8.275
		C244.016,255.878,245.738,253.21,245.738,250.138z"/>
	<path fill="#EE3968" stroke="#CC3333" stroke-width="2" stroke-miterlimit="10" d="M231.761,244.513
		c4.02,8.332-16.773,19.875-16.773,19.875s-20.943-11.641-16.728-19.875c6.95-13.578,16.75-2.076,16.75-2.076
		S225.21,230.935,231.761,244.513z"/>
	<circle fill="#CB9966" stroke="#FDCC9A" stroke-miterlimit="10" cx="214.987" cy="228.075" r="2.75"/>
	<circle fill="#CB9966" stroke="#FDCC9A" stroke-miterlimit="10" cx="226.006" cy="230.825" r="2.75"/>
	<circle fill="#CB9966" stroke="#FDCC9A" stroke-miterlimit="10" cx="235.673" cy="237.888" r="2.75"/>
	<circle fill="#CB9966" stroke="#FDCC9A" stroke-miterlimit="10" cx="238.423" cy="250.138" r="2.75"/>
	<circle fill="#CB9966" stroke="#FDCC9A" stroke-miterlimit="10" cx="214.987" cy="272.41" r="2.75"/>
	<circle fill="#CB9966" stroke="#FDCC9A" stroke-miterlimit="10" cx="226.757" cy="269.658" r="2.75"/>
	<circle fill="#CB9966" stroke="#FDCC9A" stroke-miterlimit="10" cx="235.673" cy="261.637" r="2.75"/>
	<circle fill="#CB9966" stroke="#FDCC9A" stroke-miterlimit="10" cx="203.908" cy="230.72" r="2.75"/>
	<circle fill="#CB9966" stroke="#FDCC9A" stroke-miterlimit="10" cx="194.241" cy="237.782" r="2.75"/>
	<circle fill="#CB9966" stroke="#FDCC9A" stroke-miterlimit="10" cx="191.491" cy="250.032" r="2.75"/>
	<circle fill="#CB9966" stroke="#FDCC9A" stroke-miterlimit="10" cx="203.157" cy="269.553" r="2.75"/>
	<circle fill="#CB9966" stroke="#FDCC9A" stroke-miterlimit="10" cx="194.241" cy="261.531" r="2.75"/>
	<path fill="#FDCC9A" stroke="#CB9966" stroke-width="2" stroke-miterlimit="10" d="M97.822,547.934c0-3.072-1.723-5.744-4.249-7.1
		c1.51-2.441,1.663-5.617,0.129-8.275c-1.538-2.662-4.362-4.113-7.23-4.025c0.086-2.869-1.367-5.693-4.025-7.229
		c-2.662-1.537-5.832-1.381-8.275,0.129c-1.357-2.529-4.027-4.248-7.1-4.248s-5.742,1.719-7.102,4.248
		c-2.44-1.51-5.612-1.666-8.272-0.129c-2.661,1.535-4.113,4.359-4.026,7.229c-2.871-0.086-5.693,1.367-7.229,4.025
		c-1.536,2.66-1.381,5.834,0.129,8.275c-2.528,1.355-4.249,4.027-4.249,7.1s1.721,5.74,4.249,7.1
		c-1.51,2.441-1.665,5.615-0.129,8.273c1.536,2.662,4.36,4.111,7.23,4.025c-0.088,2.869,1.364,5.695,4.025,7.232
		c2.66,1.535,5.832,1.381,8.274-0.131c1.358,2.527,4.027,4.248,7.1,4.248s5.742-1.721,7.1-4.25c2.443,1.514,5.613,1.668,8.275,0.133
		c2.66-1.537,4.111-4.363,4.025-7.232c2.868,0.086,5.692-1.363,7.23-4.023c1.536-2.66,1.381-5.834-0.131-8.275
		C96.1,553.674,97.822,551.006,97.822,547.934z"/>
	<path fill="#EE3968" stroke="#CC3333" stroke-width="2" stroke-miterlimit="10" d="M83.845,542.309
		c4.02,8.332-16.773,19.875-16.773,19.875s-20.943-11.641-16.728-19.875c6.95-13.578,16.75-2.076,16.75-2.076
		S77.294,528.73,83.845,542.309z"/>
	<circle fill="#CB9966" stroke="#FDCC9A" stroke-miterlimit="10" cx="67.071" cy="525.871" r="2.75"/>
	<circle fill="#CB9966" stroke="#FDCC9A" stroke-miterlimit="10" cx="78.09" cy="528.621" r="2.75"/>
	<circle fill="#CB9966" stroke="#FDCC9A" stroke-miterlimit="10" cx="87.757" cy="535.684" r="2.75"/>
	<circle fill="#CB9966" stroke="#FDCC9A" stroke-miterlimit="10" cx="90.507" cy="547.934" r="2.75"/>
	<circle fill="#CB9966" stroke="#FDCC9A" stroke-miterlimit="10" cx="67.071" cy="570.206" r="2.75"/>
	<circle fill="#CB9966" stroke="#FDCC9A" stroke-miterlimit="10" cx="78.841" cy="567.454" r="2.75"/>
	<circle fill="#CB9966" stroke="#FDCC9A" stroke-miterlimit="10" cx="87.757" cy="559.433" r="2.75"/>
	<circle fill="#CB9966" stroke="#FDCC9A" stroke-miterlimit="10" cx="55.992" cy="528.516" r="2.75"/>
	<circle fill="#CB9966" stroke="#FDCC9A" stroke-miterlimit="10" cx="46.325" cy="535.578" r="2.75"/>
	<circle fill="#CB9966" stroke="#FDCC9A" stroke-miterlimit="10" cx="43.575" cy="547.828" r="2.75"/>
	<circle fill="#CB9966" stroke="#FDCC9A" stroke-miterlimit="10" cx="55.241" cy="567.349" r="2.75"/>
	<circle fill="#CB9966" stroke="#FDCC9A" stroke-miterlimit="10" cx="46.325" cy="559.327" r="2.75"/>
	<path fill="#FDCC9A" stroke="#CB9966" stroke-width="2" stroke-miterlimit="10" d="M97.822,448.435c0-3.072-1.723-5.744-4.249-7.1
		c1.51-2.441,1.663-5.617,0.129-8.275c-1.538-2.662-4.362-4.113-7.23-4.025c0.086-2.869-1.367-5.693-4.025-7.229
		c-2.662-1.537-5.832-1.381-8.275,0.129c-1.357-2.529-4.027-4.248-7.1-4.248s-5.742,1.719-7.102,4.248
		c-2.44-1.51-5.612-1.666-8.272-0.129c-2.661,1.535-4.113,4.359-4.026,7.229c-2.871-0.086-5.693,1.367-7.229,4.025
		c-1.536,2.66-1.381,5.834,0.129,8.275c-2.528,1.355-4.249,4.027-4.249,7.1s1.721,5.74,4.249,7.1
		c-1.51,2.441-1.665,5.615-0.129,8.273c1.536,2.662,4.36,4.111,7.23,4.025c-0.088,2.869,1.364,5.695,4.025,7.232
		c2.66,1.535,5.832,1.381,8.274-0.131c1.358,2.527,4.027,4.248,7.1,4.248s5.742-1.721,7.1-4.25c2.443,1.514,5.613,1.668,8.275,0.133
		c2.66-1.537,4.111-4.363,4.025-7.232c2.868,0.086,5.692-1.363,7.23-4.023c1.536-2.66,1.381-5.834-0.131-8.275
		C96.1,454.175,97.822,451.507,97.822,448.435z"/>
	<path fill="#EE3968" stroke="#CC3333" stroke-width="2" stroke-miterlimit="10" d="M83.845,442.81
		c4.02,8.332-16.773,19.875-16.773,19.875s-20.943-11.641-16.728-19.875c6.95-13.578,16.75-2.076,16.75-2.076
		S77.294,429.231,83.845,442.81z"/>
	<circle fill="#CB9966" stroke="#FDCC9A" stroke-miterlimit="10" cx="67.071" cy="426.372" r="2.75"/>
	<circle fill="#CB9966" stroke="#FDCC9A" stroke-miterlimit="10" cx="78.09" cy="429.122" r="2.75"/>
	<circle fill="#CB9966" stroke="#FDCC9A" stroke-miterlimit="10" cx="87.757" cy="436.185" r="2.75"/>
	<circle fill="#CB9966" stroke="#FDCC9A" stroke-miterlimit="10" cx="90.507" cy="448.435" r="2.75"/>
	<circle fill="#CB9966" stroke="#FDCC9A" stroke-miterlimit="10" cx="67.071" cy="470.707" r="2.75"/>
	<circle fill="#CB9966" stroke="#FDCC9A" stroke-miterlimit="10" cx="78.841" cy="467.955" r="2.75"/>
	<circle fill="#CB9966" stroke="#FDCC9A" stroke-miterlimit="10" cx="87.757" cy="459.934" r="2.75"/>
	<circle fill="#CB9966" stroke="#FDCC9A" stroke-miterlimit="10" cx="55.992" cy="429.017" r="2.75"/>
	<circle fill="#CB9966" stroke="#FDCC9A" stroke-miterlimit="10" cx="46.325" cy="436.079" r="2.75"/>
	<circle fill="#CB9966" stroke="#FDCC9A" stroke-miterlimit="10" cx="43.575" cy="448.329" r="2.75"/>
	<circle fill="#CB9966" stroke="#FDCC9A" stroke-miterlimit="10" cx="55.241" cy="467.85" r="2.75"/>
	<circle fill="#CB9966" stroke="#FDCC9A" stroke-miterlimit="10" cx="46.325" cy="459.828" r="2.75"/>
	<path fill="#FDCC9A" stroke="#CB9966" stroke-width="2" stroke-miterlimit="10" d="M97.822,348.843c0-3.072-1.723-5.744-4.249-7.1
		c1.51-2.441,1.663-5.617,0.129-8.275c-1.538-2.662-4.362-4.113-7.23-4.025c0.086-2.869-1.367-5.693-4.025-7.229
		c-2.662-1.537-5.832-1.381-8.275,0.129c-1.357-2.529-4.027-4.248-7.1-4.248s-5.742,1.719-7.102,4.248
		c-2.44-1.51-5.612-1.666-8.272-0.129c-2.661,1.535-4.113,4.359-4.026,7.229c-2.871-0.086-5.693,1.367-7.229,4.025
		c-1.536,2.66-1.381,5.834,0.129,8.275c-2.528,1.355-4.249,4.027-4.249,7.1s1.721,5.74,4.249,7.1
		c-1.51,2.441-1.665,5.615-0.129,8.273c1.536,2.662,4.36,4.111,7.23,4.025c-0.088,2.869,1.364,5.695,4.025,7.232
		c2.66,1.535,5.832,1.381,8.274-0.131c1.358,2.527,4.027,4.248,7.1,4.248s5.742-1.721,7.1-4.25c2.443,1.514,5.613,1.668,8.275,0.133
		c2.66-1.537,4.111-4.363,4.025-7.232c2.868,0.086,5.692-1.363,7.23-4.023c1.536-2.66,1.381-5.834-0.131-8.275
		C96.099,354.583,97.822,351.915,97.822,348.843z"/>
	<path fill="#EE3968" stroke="#CC3333" stroke-width="2" stroke-miterlimit="10" d="M83.844,343.218
		c4.02,8.332-16.773,19.875-16.773,19.875s-20.943-11.641-16.728-19.875c6.95-13.578,16.75-2.076,16.75-2.076
		S77.293,329.64,83.844,343.218z"/>
	<circle fill="#CB9966" stroke="#FDCC9A" stroke-miterlimit="10" cx="67.071" cy="326.78" r="2.75"/>
	<circle fill="#CB9966" stroke="#FDCC9A" stroke-miterlimit="10" cx="78.09" cy="329.53" r="2.75"/>
	<circle fill="#CB9966" stroke="#FDCC9A" stroke-miterlimit="10" cx="87.756" cy="336.593" r="2.75"/>
	<circle fill="#CB9966" stroke="#FDCC9A" stroke-miterlimit="10" cx="90.506" cy="348.843" r="2.75"/>
	<circle fill="#CB9966" stroke="#FDCC9A" stroke-miterlimit="10" cx="67.071" cy="371.115" r="2.75"/>
	<circle fill="#CB9966" stroke="#FDCC9A" stroke-miterlimit="10" cx="78.84" cy="368.363" r="2.75"/>
	<circle fill="#CB9966" stroke="#FDCC9A" stroke-miterlimit="10" cx="87.756" cy="360.342" r="2.75"/>
	<circle fill="#CB9966" stroke="#FDCC9A" stroke-miterlimit="10" cx="55.991" cy="329.425" r="2.75"/>
	<circle fill="#CB9966" stroke="#FDCC9A" stroke-miterlimit="10" cx="46.325" cy="336.487" r="2.75"/>
	<circle fill="#CB9966" stroke="#FDCC9A" stroke-miterlimit="10" cx="43.575" cy="348.737" r="2.75"/>
	<circle fill="#CB9966" stroke="#FDCC9A" stroke-miterlimit="10" cx="55.241" cy="368.258" r="2.75"/>
	<circle fill="#CB9966" stroke="#FDCC9A" stroke-miterlimit="10" cx="46.325" cy="360.236" r="2.75"/>
	<path fill="#FDCC9A" stroke="#CB9966" stroke-width="2" stroke-miterlimit="10" d="M246.446,548.559c0-3.072-1.723-5.744-4.25-7.1
		c1.51-2.441,1.664-5.617,0.129-8.275c-1.537-2.662-4.361-4.113-7.23-4.025c0.086-2.869-1.367-5.693-4.025-7.229
		c-2.662-1.537-5.832-1.381-8.275,0.129c-1.357-2.529-4.027-4.248-7.1-4.248s-5.742,1.719-7.102,4.248
		c-2.439-1.51-5.611-1.666-8.271-0.129c-2.662,1.535-4.113,4.359-4.027,7.229c-2.871-0.086-5.693,1.367-7.229,4.025
		c-1.537,2.66-1.381,5.834,0.129,8.275c-2.529,1.355-4.25,4.027-4.25,7.1s1.721,5.74,4.25,7.1c-1.51,2.441-1.666,5.615-0.129,8.273
		c1.535,2.662,4.359,4.111,7.23,4.025c-0.088,2.869,1.363,5.695,4.025,7.232c2.66,1.535,5.832,1.381,8.273-0.131
		c1.359,2.527,4.027,4.248,7.1,4.248s5.742-1.721,7.1-4.25c2.443,1.514,5.613,1.668,8.275,0.133c2.66-1.537,4.111-4.363,4.025-7.232
		c2.869,0.086,5.693-1.363,7.23-4.023s1.381-5.834-0.131-8.275C244.724,554.299,246.446,551.631,246.446,548.559z"/>
	<path fill="#EE3968" stroke="#CC3333" stroke-width="2" stroke-miterlimit="10" d="M232.468,542.934
		c4.02,8.332-16.773,19.875-16.773,19.875s-20.943-11.641-16.727-19.875c6.949-13.578,16.75-2.076,16.75-2.076
		S225.917,529.355,232.468,542.934z"/>
	<circle fill="#CB9966" stroke="#FDCC9A" stroke-miterlimit="10" cx="215.694" cy="526.496" r="2.75"/>
	<circle fill="#CB9966" stroke="#FDCC9A" stroke-miterlimit="10" cx="226.714" cy="529.246" r="2.75"/>
	<circle fill="#CB9966" stroke="#FDCC9A" stroke-miterlimit="10" cx="236.38" cy="536.309" r="2.75"/>
	<circle fill="#CB9966" stroke="#FDCC9A" stroke-miterlimit="10" cx="239.13" cy="548.559" r="2.75"/>
	<circle fill="#CB9966" stroke="#FDCC9A" stroke-miterlimit="10" cx="215.694" cy="570.831" r="2.75"/>
	<circle fill="#CB9966" stroke="#FDCC9A" stroke-miterlimit="10" cx="227.464" cy="568.079" r="2.75"/>
	<circle fill="#CB9966" stroke="#FDCC9A" stroke-miterlimit="10" cx="236.38" cy="560.058" r="2.75"/>
	<circle fill="#CB9966" stroke="#FDCC9A" stroke-miterlimit="10" cx="204.615" cy="529.141" r="2.749"/>
	<circle fill="#CB9966" stroke="#FDCC9A" stroke-miterlimit="10" cx="194.948" cy="536.203" r="2.75"/>
	<circle fill="#CB9966" stroke="#FDCC9A" stroke-miterlimit="10" cx="192.198" cy="548.453" r="2.75"/>
	<circle fill="#CB9966" stroke="#FDCC9A" stroke-miterlimit="10" cx="203.864" cy="567.974" r="2.75"/>
	<circle fill="#CB9966" stroke="#FDCC9A" stroke-miterlimit="10" cx="194.948" cy="559.952" r="2.75"/>
	<path fill="#FDCC9A" stroke="#CB9966" stroke-width="2" stroke-miterlimit="10" d="M246.446,449.061c0-3.072-1.723-5.744-4.25-7.1
		c1.51-2.441,1.664-5.617,0.129-8.275c-1.537-2.662-4.361-4.113-7.23-4.025c0.086-2.869-1.367-5.693-4.025-7.229
		c-2.662-1.537-5.832-1.381-8.275,0.129c-1.357-2.529-4.027-4.248-7.1-4.248s-5.742,1.719-7.102,4.248
		c-2.439-1.51-5.611-1.666-8.271-0.129c-2.662,1.535-4.113,4.359-4.027,7.229c-2.871-0.086-5.693,1.367-7.229,4.025
		c-1.537,2.66-1.381,5.834,0.129,8.275c-2.529,1.355-4.25,4.027-4.25,7.1s1.721,5.74,4.25,7.1c-1.51,2.441-1.666,5.615-0.129,8.273
		c1.535,2.662,4.359,4.111,7.23,4.025c-0.088,2.869,1.363,5.695,4.025,7.232c2.66,1.535,5.832,1.381,8.273-0.131
		c1.359,2.527,4.027,4.248,7.1,4.248s5.742-1.721,7.1-4.25c2.443,1.514,5.613,1.668,8.275,0.133c2.66-1.537,4.111-4.363,4.025-7.232
		c2.869,0.086,5.693-1.363,7.23-4.023s1.381-5.834-0.131-8.275C244.724,454.801,246.446,452.133,246.446,449.061z"/>
	<path fill="#EE3968" stroke="#CC3333" stroke-width="2" stroke-miterlimit="10" d="M232.468,443.436
		c4.02,8.332-16.773,19.875-16.773,19.875s-20.943-11.641-16.727-19.875c6.949-13.578,16.75-2.076,16.75-2.076
		S225.917,429.857,232.468,443.436z"/>
	<circle fill="#CB9966" stroke="#FDCC9A" stroke-miterlimit="10" cx="215.694" cy="426.998" r="2.75"/>
	<circle fill="#CB9966" stroke="#FDCC9A" stroke-miterlimit="10" cx="226.714" cy="429.748" r="2.75"/>
	<circle fill="#CB9966" stroke="#FDCC9A" stroke-miterlimit="10" cx="236.38" cy="436.811" r="2.75"/>
	<circle fill="#CB9966" stroke="#FDCC9A" stroke-miterlimit="10" cx="239.13" cy="449.061" r="2.75"/>
	<circle fill="#CB9966" stroke="#FDCC9A" stroke-miterlimit="10" cx="215.694" cy="471.333" r="2.75"/>
	<circle fill="#CB9966" stroke="#FDCC9A" stroke-miterlimit="10" cx="227.464" cy="468.581" r="2.75"/>
	<circle fill="#CB9966" stroke="#FDCC9A" stroke-miterlimit="10" cx="236.38" cy="460.56" r="2.75"/>
	<circle fill="#CB9966" stroke="#FDCC9A" stroke-miterlimit="10" cx="204.615" cy="429.643" r="2.749"/>
	<circle fill="#CB9966" stroke="#FDCC9A" stroke-miterlimit="10" cx="194.948" cy="436.705" r="2.75"/>
	<circle fill="#CB9966" stroke="#FDCC9A" stroke-miterlimit="10" cx="192.198" cy="448.955" r="2.75"/>
	<circle fill="#CB9966" stroke="#FDCC9A" stroke-miterlimit="10" cx="203.864" cy="468.476" r="2.75"/>
	<circle fill="#CB9966" stroke="#FDCC9A" stroke-miterlimit="10" cx="194.948" cy="460.454" r="2.75"/>
	<path fill="#FDCC9A" stroke="#CB9966" stroke-width="2" stroke-miterlimit="10" d="M246.444,349.469c0-3.072-1.723-5.744-4.248-7.1
		c1.51-2.441,1.662-5.617,0.129-8.275c-1.539-2.662-4.363-4.113-7.23-4.025c0.086-2.869-1.367-5.693-4.025-7.229
		c-2.662-1.537-5.832-1.381-8.275,0.129c-1.357-2.529-4.027-4.248-7.1-4.248s-5.742,1.719-7.102,4.248
		c-2.44-1.51-5.612-1.666-8.272-0.129c-2.661,1.535-4.113,4.359-4.026,7.229c-2.871-0.086-5.693,1.367-7.229,4.025
		c-1.536,2.66-1.381,5.834,0.129,8.275c-2.528,1.355-4.249,4.027-4.249,7.1s1.721,5.74,4.249,7.1
		c-1.51,2.441-1.665,5.615-0.129,8.273c1.536,2.662,4.36,4.111,7.23,4.025c-0.088,2.869,1.364,5.695,4.025,7.232
		c2.66,1.535,5.832,1.381,8.274-0.131c1.358,2.527,4.027,4.248,7.1,4.248s5.742-1.721,7.1-4.25c2.443,1.514,5.613,1.668,8.275,0.133
		c2.66-1.537,4.111-4.363,4.025-7.232c2.867,0.086,5.691-1.363,7.23-4.023c1.535-2.66,1.381-5.834-0.131-8.275
		C244.722,355.209,246.444,352.541,246.444,349.469z"/>
	<path fill="#EE3968" stroke="#CC3333" stroke-width="2" stroke-miterlimit="10" d="M232.468,343.844
		c4.02,8.332-16.773,19.875-16.773,19.875s-20.943-11.641-16.728-19.875c6.95-13.578,16.75-2.076,16.75-2.076
		S225.917,330.266,232.468,343.844z"/>
	<circle fill="#CB9966" stroke="#FDCC9A" stroke-miterlimit="10" cx="215.694" cy="327.406" r="2.75"/>
	<circle fill="#CB9966" stroke="#FDCC9A" stroke-miterlimit="10" cx="226.713" cy="330.156" r="2.749"/>
	<circle fill="#CB9966" stroke="#FDCC9A" stroke-miterlimit="10" cx="236.38" cy="337.219" r="2.75"/>
	<circle fill="#CB9966" stroke="#FDCC9A" stroke-miterlimit="10" cx="239.13" cy="349.469" r="2.75"/>
	<circle fill="#CB9966" stroke="#FDCC9A" stroke-miterlimit="10" cx="215.694" cy="371.741" r="2.75"/>
	<circle fill="#CB9966" stroke="#FDCC9A" stroke-miterlimit="10" cx="227.464" cy="368.989" r="2.75"/>
	<circle fill="#CB9966" stroke="#FDCC9A" stroke-miterlimit="10" cx="236.38" cy="360.968" r="2.75"/>
	<circle fill="#CB9966" stroke="#FDCC9A" stroke-miterlimit="10" cx="204.615" cy="330.051" r="2.75"/>
	<circle fill="#CB9966" stroke="#FDCC9A" stroke-miterlimit="10" cx="194.948" cy="337.113" r="2.75"/>
	<circle fill="#CB9966" stroke="#FDCC9A" stroke-miterlimit="10" cx="192.198" cy="349.363" r="2.75"/>
	<circle fill="#CB9966" stroke="#FDCC9A" stroke-miterlimit="10" cx="203.864" cy="368.884" r="2.75"/>
	<circle fill="#CB9966" stroke="#FDCC9A" stroke-miterlimit="10" cx="194.948" cy="360.862" r="2.75"/>
	<path fill="#FDCC9A" stroke="#CB9966" stroke-width="2" stroke-miterlimit="10" d="M246.55,548.355c0-3.072-1.723-5.744-4.248-7.1
		c1.51-2.441,1.662-5.617,0.129-8.275c-1.539-2.662-4.363-4.113-7.23-4.025c0.086-2.869-1.367-5.693-4.025-7.229
		c-2.662-1.537-5.832-1.381-8.275,0.129c-1.357-2.529-4.027-4.248-7.1-4.248s-5.742,1.719-7.102,4.248
		c-2.441-1.51-5.613-1.666-8.273-0.129c-2.66,1.535-4.113,4.359-4.025,7.229c-2.871-0.086-5.693,1.367-7.23,4.025
		c-1.535,2.66-1.381,5.834,0.129,8.275c-2.527,1.355-4.248,4.027-4.248,7.1s1.721,5.74,4.248,7.1
		c-1.51,2.441-1.664,5.615-0.129,8.273c1.537,2.662,4.361,4.111,7.23,4.025c-0.088,2.869,1.365,5.695,4.025,7.232
		c2.66,1.535,5.832,1.381,8.275-0.131c1.357,2.527,4.027,4.248,7.1,4.248s5.742-1.721,7.1-4.25c2.443,1.514,5.613,1.668,8.275,0.133
		c2.66-1.537,4.111-4.363,4.025-7.232c2.867,0.086,5.691-1.363,7.23-4.023c1.535-2.66,1.381-5.834-0.131-8.275
		C244.827,554.096,246.55,551.428,246.55,548.355z"/>
	<path fill="#EE3968" stroke="#CC3333" stroke-width="2" stroke-miterlimit="10" d="M232.573,542.73
		c4.02,8.332-16.773,19.875-16.773,19.875s-20.943-11.641-16.729-19.875c6.951-13.578,16.75-2.076,16.75-2.076
		S226.022,529.152,232.573,542.73z"/>
	<circle fill="#CB9966" stroke="#FDCC9A" stroke-miterlimit="10" cx="215.8" cy="526.293" r="2.75"/>
	<circle fill="#CB9966" stroke="#FDCC9A" stroke-miterlimit="10" cx="226.818" cy="529.043" r="2.749"/>
	<circle fill="#CB9966" stroke="#FDCC9A" stroke-miterlimit="10" cx="236.485" cy="536.105" r="2.75"/>
	<circle fill="#CB9966" stroke="#FDCC9A" stroke-miterlimit="10" cx="239.235" cy="548.355" r="2.75"/>
	<circle fill="#CB9966" stroke="#FDCC9A" stroke-miterlimit="10" cx="215.8" cy="570.628" r="2.75"/>
	<circle fill="#CB9966" stroke="#FDCC9A" stroke-miterlimit="10" cx="227.569" cy="567.876" r="2.75"/>
	<circle fill="#CB9966" stroke="#FDCC9A" stroke-miterlimit="10" cx="236.485" cy="559.854" r="2.75"/>
	<circle fill="#CB9966" stroke="#FDCC9A" stroke-miterlimit="10" cx="204.72" cy="528.938" r="2.75"/>
	<circle fill="#CB9966" stroke="#FDCC9A" stroke-miterlimit="10" cx="195.054" cy="536" r="2.75"/>
	<circle fill="#CB9966" stroke="#FDCC9A" stroke-miterlimit="10" cx="192.304" cy="548.25" r="2.75"/>
	<circle fill="#CB9966" stroke="#FDCC9A" stroke-miterlimit="10" cx="203.97" cy="567.771" r="2.75"/>
	<circle fill="#CB9966" stroke="#FDCC9A" stroke-miterlimit="10" cx="195.054" cy="559.749" r="2.75"/>
	<path fill="#FDCC9A" stroke="#CB9966" stroke-width="2" stroke-miterlimit="10" d="M246.55,448.856c0-3.072-1.723-5.744-4.248-7.1
		c1.51-2.441,1.662-5.617,0.129-8.275c-1.539-2.662-4.363-4.113-7.23-4.025c0.086-2.869-1.367-5.693-4.025-7.229
		c-2.662-1.537-5.832-1.381-8.275,0.129c-1.357-2.529-4.027-4.248-7.1-4.248s-5.742,1.719-7.102,4.248
		c-2.441-1.51-5.613-1.666-8.273-0.129c-2.66,1.535-4.113,4.359-4.025,7.229c-2.871-0.086-5.693,1.367-7.23,4.025
		c-1.535,2.66-1.381,5.834,0.129,8.275c-2.527,1.355-4.248,4.027-4.248,7.1s1.721,5.74,4.248,7.1
		c-1.51,2.441-1.664,5.615-0.129,8.273c1.537,2.662,4.361,4.111,7.23,4.025c-0.088,2.869,1.365,5.695,4.025,7.232
		c2.66,1.535,5.832,1.381,8.275-0.131c1.357,2.527,4.027,4.248,7.1,4.248s5.742-1.721,7.1-4.25c2.443,1.514,5.613,1.668,8.275,0.133
		c2.66-1.537,4.111-4.363,4.025-7.232c2.867,0.086,5.691-1.363,7.23-4.023c1.535-2.66,1.381-5.834-0.131-8.275
		C244.827,454.597,246.55,451.929,246.55,448.856z"/>
	<path fill="#EE3968" stroke="#CC3333" stroke-width="2" stroke-miterlimit="10" d="M232.573,443.231
		c4.02,8.332-16.773,19.875-16.773,19.875s-20.943-11.641-16.729-19.875c6.951-13.578,16.75-2.076,16.75-2.076
		S226.022,429.653,232.573,443.231z"/>
	<circle fill="#CB9966" stroke="#FDCC9A" stroke-miterlimit="10" cx="215.8" cy="426.794" r="2.75"/>
	<circle fill="#CB9966" stroke="#FDCC9A" stroke-miterlimit="10" cx="226.818" cy="429.544" r="2.749"/>
	<circle fill="#CB9966" stroke="#FDCC9A" stroke-miterlimit="10" cx="236.485" cy="436.606" r="2.75"/>
	<circle fill="#CB9966" stroke="#FDCC9A" stroke-miterlimit="10" cx="239.235" cy="448.856" r="2.75"/>
	<circle fill="#CB9966" stroke="#FDCC9A" stroke-miterlimit="10" cx="215.8" cy="471.129" r="2.75"/>
	<circle fill="#CB9966" stroke="#FDCC9A" stroke-miterlimit="10" cx="227.569" cy="468.377" r="2.75"/>
	<circle fill="#CB9966" stroke="#FDCC9A" stroke-miterlimit="10" cx="236.485" cy="460.355" r="2.75"/>
	<circle fill="#CB9966" stroke="#FDCC9A" stroke-miterlimit="10" cx="204.72" cy="429.438" r="2.75"/>
	<circle fill="#CB9966" stroke="#FDCC9A" stroke-miterlimit="10" cx="195.054" cy="436.501" r="2.75"/>
	<circle fill="#CB9966" stroke="#FDCC9A" stroke-miterlimit="10" cx="192.304" cy="448.751" r="2.75"/>
	<circle fill="#CB9966" stroke="#FDCC9A" stroke-miterlimit="10" cx="203.97" cy="468.271" r="2.75"/>
	<circle fill="#CB9966" stroke="#FDCC9A" stroke-miterlimit="10" cx="195.054" cy="460.25" r="2.75"/>
	<path fill="#FDCC9A" stroke="#CB9966" stroke-width="2" stroke-miterlimit="10" d="M246.55,349.265c0-3.072-1.723-5.744-4.249-7.1
		c1.51-2.441,1.663-5.617,0.129-8.275c-1.538-2.662-4.362-4.113-7.23-4.025c0.086-2.869-1.367-5.693-4.025-7.229
		c-2.662-1.537-5.832-1.381-8.275,0.129c-1.357-2.529-4.027-4.248-7.1-4.248s-5.742,1.719-7.102,4.248
		c-2.44-1.51-5.612-1.666-8.272-0.129c-2.661,1.535-4.113,4.359-4.026,7.229c-2.871-0.086-5.693,1.367-7.229,4.025
		c-1.536,2.66-1.381,5.834,0.129,8.275c-2.528,1.355-4.249,4.027-4.249,7.1s1.721,5.74,4.249,7.1
		c-1.51,2.441-1.665,5.615-0.129,8.273c1.536,2.662,4.36,4.111,7.23,4.025c-0.088,2.869,1.364,5.695,4.025,7.232
		c2.66,1.535,5.832,1.381,8.274-0.131c1.358,2.527,4.027,4.248,7.1,4.248s5.742-1.721,7.1-4.25c2.443,1.514,5.613,1.668,8.275,0.133
		c2.66-1.537,4.111-4.363,4.025-7.232c2.868,0.086,5.692-1.363,7.23-4.023c1.536-2.66,1.381-5.834-0.131-8.275
		C244.827,355.005,246.55,352.337,246.55,349.265z"/>
	<path fill="#EE3968" stroke="#CC3333" stroke-width="2" stroke-miterlimit="10" d="M232.572,343.64
		c4.02,8.332-16.773,19.875-16.773,19.875s-20.943-11.641-16.728-19.875c6.95-13.578,16.75-2.076,16.75-2.076
		S226.021,330.062,232.572,343.64z"/>
	<circle fill="#CB9966" stroke="#FDCC9A" stroke-miterlimit="10" cx="215.799" cy="327.202" r="2.75"/>
	<circle fill="#CB9966" stroke="#FDCC9A" stroke-miterlimit="10" cx="226.818" cy="329.952" r="2.75"/>
	<circle fill="#CB9966" stroke="#FDCC9A" stroke-miterlimit="10" cx="236.484" cy="337.015" r="2.75"/>
	<circle fill="#CB9966" stroke="#FDCC9A" stroke-miterlimit="10" cx="239.234" cy="349.265" r="2.75"/>
	<circle fill="#CB9966" stroke="#FDCC9A" stroke-miterlimit="10" cx="215.799" cy="371.537" r="2.75"/>
	<circle fill="#CB9966" stroke="#FDCC9A" stroke-miterlimit="10" cx="227.568" cy="368.785" r="2.75"/>
	<circle fill="#CB9966" stroke="#FDCC9A" stroke-miterlimit="10" cx="236.484" cy="360.764" r="2.75"/>
	<circle fill="#CB9966" stroke="#FDCC9A" stroke-miterlimit="10" cx="204.719" cy="329.847" r="2.75"/>
	<circle fill="#CB9966" stroke="#FDCC9A" stroke-miterlimit="10" cx="195.053" cy="336.909" r="2.75"/>
	<circle fill="#CB9966" stroke="#FDCC9A" stroke-miterlimit="10" cx="192.303" cy="349.159" r="2.75"/>
	<circle fill="#CB9966" stroke="#FDCC9A" stroke-miterlimit="10" cx="203.969" cy="368.68" r="2.75"/>
	<circle fill="#CB9966" stroke="#FDCC9A" stroke-miterlimit="10" cx="195.053" cy="360.658" r="2.75"/>
</g>
</svg>
